<?xml version="1.0" encoding="UTF-8"?>
<svg width="512" height="512" viewBox="0 0 512 512" xmlns="http://www.w3.org/2000/svg" role="img" aria-label="amethyst material icon">
  <defs>
    
    <filter id="drop_amethyst" x="-30%" y="-30%" width="160%" height="170%">
      <feDropShadow dx="0" dy="20" stdDeviation="14" flood-color="#000000" flood-opacity="0.42"/>
    </filter>
    <filter id="grain_amethyst" x="-20%" y="-20%" width="140%" height="140%">
      <feTurbulence type="fractalNoise" baseFrequency="0.8" numOctaves="3" seed="231" result="noise"/>
      <feColorMatrix type="saturate" values="0"/>
      <feComponentTransfer>
        <feFuncA type="table" tableValues="0 0.11"/>
      </feComponentTransfer>
    </filter>
    <filter id="surface_amethyst" x="-20%" y="-20%" width="140%" height="140%">
      <feTurbulence type="fractalNoise" baseFrequency="0.028" numOctaves="2" seed="248" result="surfaceNoise"/>
      <feDisplacementMap in="SourceGraphic" in2="surfaceNoise" scale="8" xChannelSelector="R" yChannelSelector="G"/>
    </filter>
    <radialGradient id="rim_amethyst" cx="0.35" cy="0.2" r="0.9">
      <stop offset="0%" stop-color="#ffffff" stop-opacity="0.4"/>
      <stop offset="70%" stop-color="#ffffff" stop-opacity="0.06"/>
      <stop offset="100%" stop-color="#000000" stop-opacity="0.22"/>
    </radialGradient>
    
    <linearGradient id="base_amethyst" x1="0" y1="0" x2="1" y2="1">
      <stop offset="0%" stop-color="#d4b4ff"/>
      <stop offset="45%" stop-color="#8d61d8"/>
      <stop offset="100%" stop-color="#4b2b89"/>
    </linearGradient>
    <radialGradient id="glow_amethyst" cx="0.4" cy="0.28" r="0.8">
      <stop offset="0%" stop-color="#eedcff" stop-opacity="0.42"/>
      <stop offset="100%" stop-color="#ffffff" stop-opacity="0"/>
    </radialGradient>
  </defs>
  <ellipse cx="256" cy="458" rx="146" ry="28" fill="#000000" opacity="0.28"/>
  
  <g filter="url(#drop_amethyst)">
    <path d="M412.6 275.1 L357.1 364.8 L253.5 404.2 L126.5 382.1 L106.0 263.0 L133.8 134.7 L248.8 95.4 L360.3 153.5 Z" fill="url(#base_amethyst)" stroke="#0f1320" stroke-opacity="0.65" stroke-width="8"/>
    <path d="M412.6 275.1 L357.1 364.8 L253.5 404.2 L126.5 382.1 L106.0 263.0 L133.8 134.7 L248.8 95.4 L360.3 153.5 Z" fill="url(#glow_amethyst)"/>
    <path d="M254.9 252.9 L412.6 275.1 L385.1 323.5 Z" fill="#ffffff" opacity="0.166"/><path d="M254.9 252.9 L385.1 323.5 L357.1 364.8 Z" fill="#000000" opacity="0.108"/><path d="M254.9 252.9 L357.1 364.8 L312.7 395.1 Z" fill="#ffffff" opacity="0.230"/><path d="M254.9 252.9 L312.7 395.1 L253.5 404.2 Z" fill="#000000" opacity="0.095"/><path d="M254.9 252.9 L253.5 404.2 L199.3 397.0 Z" fill="#ffffff" opacity="0.368"/><path d="M254.9 252.9 L199.3 397.0 L126.5 382.1 Z" fill="#000000" opacity="0.140"/><path d="M254.9 252.9 L126.5 382.1 L123.1 310.9 Z" fill="#ffffff" opacity="0.218"/><path d="M254.9 252.9 L123.1 310.9 L106.0 263.0 Z" fill="#000000" opacity="0.134"/><path d="M254.9 252.9 L106.0 263.0 L113.5 200.5 Z" fill="#ffffff" opacity="0.269"/><path d="M254.9 252.9 L113.5 200.5 L133.8 134.7 Z" fill="#000000" opacity="0.107"/><path d="M254.9 252.9 L133.8 134.7 L195.7 118.2 Z" fill="#ffffff" opacity="0.283"/><path d="M254.9 252.9 L195.7 118.2 L248.8 95.4 Z" fill="#000000" opacity="0.173"/><path d="M254.9 252.9 L248.8 95.4 L300.2 130.8 Z" fill="#ffffff" opacity="0.252"/><path d="M254.9 252.9 L300.2 130.8 L360.3 153.5 Z" fill="#000000" opacity="0.094"/><path d="M254.9 252.9 L360.3 153.5 L393.2 209.6 Z" fill="#ffffff" opacity="0.317"/><path d="M254.9 252.9 L393.2 209.6 L412.6 275.1 Z" fill="#000000" opacity="0.108"/>
    <circle cx="206.2" cy="278.4" r="7.9" fill="#ffffff" opacity="0.373"/><circle cx="200.5" cy="202.6" r="9.5" fill="#ffffff" opacity="0.235"/><circle cx="205.2" cy="190.6" r="4.4" fill="#ffffff" opacity="0.353"/><circle cx="317.0" cy="157.7" r="9.3" fill="#ffffff" opacity="0.360"/><circle cx="245.1" cy="308.5" r="10.3" fill="#ffffff" opacity="0.251"/><circle cx="304.4" cy="141.4" r="10.0" fill="#ffffff" opacity="0.258"/><circle cx="305.4" cy="143.2" r="6.0" fill="#ffffff" opacity="0.209"/>
    <path d="M368.5 268.6 L330.6 337.3 L255.3 371.4 L162.9 351.6 L150.9 256.1 L160.8 165.3 L256.7 130.7 L333.4 175.0 Z" fill="url(#rim_amethyst)" opacity="0.38"/>
  </g>
  <rect x="24" y="24" width="464" height="464" filter="url(#grain_amethyst)"/>
</svg>