<?xml version="1.0" encoding="UTF-8"?>
<svg width="512" height="512" viewBox="0 0 512 512" xmlns="http://www.w3.org/2000/svg" role="img" aria-label="blue_crystal material icon">
  <defs>
    
    <filter id="drop_blue_crystal" x="-30%" y="-30%" width="160%" height="170%">
      <feDropShadow dx="0" dy="20" stdDeviation="14" flood-color="#000000" flood-opacity="0.42"/>
    </filter>
    <filter id="grain_blue_crystal" x="-20%" y="-20%" width="140%" height="140%">
      <feTurbulence type="fractalNoise" baseFrequency="0.8" numOctaves="3" seed="243" result="noise"/>
      <feColorMatrix type="saturate" values="0"/>
      <feComponentTransfer>
        <feFuncA type="table" tableValues="0 0.11"/>
      </feComponentTransfer>
    </filter>
    <filter id="surface_blue_crystal" x="-20%" y="-20%" width="140%" height="140%">
      <feTurbulence type="fractalNoise" baseFrequency="0.028" numOctaves="2" seed="260" result="surfaceNoise"/>
      <feDisplacementMap in="SourceGraphic" in2="surfaceNoise" scale="8" xChannelSelector="R" yChannelSelector="G"/>
    </filter>
    <radialGradient id="rim_blue_crystal" cx="0.35" cy="0.2" r="0.9">
      <stop offset="0%" stop-color="#ffffff" stop-opacity="0.4"/>
      <stop offset="70%" stop-color="#ffffff" stop-opacity="0.06"/>
      <stop offset="100%" stop-color="#000000" stop-opacity="0.22"/>
    </radialGradient>
    
    <linearGradient id="base_blue_crystal" x1="0" y1="0" x2="1" y2="1">
      <stop offset="0%" stop-color="#9ad8ff"/>
      <stop offset="45%" stop-color="#4d8ceb"/>
      <stop offset="100%" stop-color="#2447a1"/>
    </linearGradient>
    <radialGradient id="glow_blue_crystal" cx="0.4" cy="0.28" r="0.8">
      <stop offset="0%" stop-color="#e3f4ff" stop-opacity="0.42"/>
      <stop offset="100%" stop-color="#ffffff" stop-opacity="0"/>
    </radialGradient>
  </defs>
  <ellipse cx="256" cy="458" rx="146" ry="28" fill="#000000" opacity="0.28"/>
  
  <g filter="url(#drop_blue_crystal)">
    <path d="M397.5 294.9 L328.7 395.9 L218.6 422.5 L107.0 351.8 L116.4 203.6 L172.8 120.2 L300.5 92.0 L403.6 182.6 Z" fill="url(#base_blue_crystal)" stroke="#0f1320" stroke-opacity="0.65" stroke-width="8"/>
    <path d="M397.5 294.9 L328.7 395.9 L218.6 422.5 L107.0 351.8 L116.4 203.6 L172.8 120.2 L300.5 92.0 L403.6 182.6 Z" fill="url(#glow_blue_crystal)"/>
    <path d="M267.7 261.2 L397.5 294.9 L357.4 347.5 Z" fill="#ffffff" opacity="0.204"/><path d="M267.7 261.2 L357.4 347.5 L328.7 395.9 Z" fill="#000000" opacity="0.094"/><path d="M267.7 261.2 L328.7 395.9 L266.8 416.4 Z" fill="#ffffff" opacity="0.347"/><path d="M267.7 261.2 L266.8 416.4 L218.6 422.5 Z" fill="#000000" opacity="0.106"/><path d="M267.7 261.2 L218.6 422.5 L164.0 376.0 Z" fill="#ffffff" opacity="0.175"/><path d="M267.7 261.2 L164.0 376.0 L107.0 351.8 Z" fill="#000000" opacity="0.120"/><path d="M267.7 261.2 L107.0 351.8 L116.5 273.5 Z" fill="#ffffff" opacity="0.236"/><path d="M267.7 261.2 L116.5 273.5 L116.4 203.6 Z" fill="#000000" opacity="0.107"/><path d="M267.7 261.2 L116.4 203.6 L139.3 156.7 Z" fill="#ffffff" opacity="0.334"/><path d="M267.7 261.2 L139.3 156.7 L172.8 120.2 Z" fill="#000000" opacity="0.165"/><path d="M267.7 261.2 L172.8 120.2 L248.4 108.0 Z" fill="#ffffff" opacity="0.268"/><path d="M267.7 261.2 L248.4 108.0 L300.5 92.0 Z" fill="#000000" opacity="0.153"/><path d="M267.7 261.2 L300.5 92.0 L345.1 141.8 Z" fill="#ffffff" opacity="0.167"/><path d="M267.7 261.2 L345.1 141.8 L403.6 182.6 Z" fill="#000000" opacity="0.184"/><path d="M267.7 261.2 L403.6 182.6 L402.7 233.5 Z" fill="#ffffff" opacity="0.285"/><path d="M267.7 261.2 L402.7 233.5 L397.5 294.9 Z" fill="#000000" opacity="0.095"/>
    <circle cx="214.8" cy="289.2" r="5.8" fill="#ffffff" opacity="0.212"/><circle cx="242.7" cy="239.6" r="7.7" fill="#ffffff" opacity="0.224"/><circle cx="314.0" cy="184.2" r="7.7" fill="#ffffff" opacity="0.339"/><circle cx="214.2" cy="296.6" r="8.0" fill="#ffffff" opacity="0.342"/><circle cx="183.3" cy="311.2" r="10.6" fill="#ffffff" opacity="0.444"/><circle cx="224.2" cy="232.8" r="8.6" fill="#ffffff" opacity="0.371"/><circle cx="338.8" cy="240.8" r="7.4" fill="#ffffff" opacity="0.206"/>
    <path d="M354.8 280.6 L311.7 354.2 L230.8 376.2 L144.1 326.5 L156.0 210.5 L194.2 154.6 L286.6 136.7 L358.8 203.4 Z" fill="url(#rim_blue_crystal)" opacity="0.38"/>
  </g>
  <rect x="24" y="24" width="464" height="464" filter="url(#grain_blue_crystal)"/>
</svg>