<?xml version="1.0" encoding="UTF-8"?>
<svg width="512" height="512" viewBox="0 0 512 512" xmlns="http://www.w3.org/2000/svg" role="img" aria-label="coal material icon">
  <defs>
    
    <filter id="drop_coal" x="-30%" y="-30%" width="160%" height="170%">
      <feDropShadow dx="0" dy="20" stdDeviation="14" flood-color="#000000" flood-opacity="0.42"/>
    </filter>
    <filter id="grain_coal" x="-20%" y="-20%" width="140%" height="140%">
      <feTurbulence type="fractalNoise" baseFrequency="0.8" numOctaves="3" seed="203" result="noise"/>
      <feColorMatrix type="saturate" values="0"/>
      <feComponentTransfer>
        <feFuncA type="table" tableValues="0 0.11"/>
      </feComponentTransfer>
    </filter>
    <filter id="surface_coal" x="-20%" y="-20%" width="140%" height="140%">
      <feTurbulence type="fractalNoise" baseFrequency="0.028" numOctaves="2" seed="220" result="surfaceNoise"/>
      <feDisplacementMap in="SourceGraphic" in2="surfaceNoise" scale="8" xChannelSelector="R" yChannelSelector="G"/>
    </filter>
    <radialGradient id="rim_coal" cx="0.35" cy="0.2" r="0.9">
      <stop offset="0%" stop-color="#ffffff" stop-opacity="0.4"/>
      <stop offset="70%" stop-color="#ffffff" stop-opacity="0.06"/>
      <stop offset="100%" stop-color="#000000" stop-opacity="0.22"/>
    </radialGradient>
    
    <linearGradient id="base_coal" x1="0" y1="0" x2="1" y2="1">
      <stop offset="0%" stop-color="#70727d"/>
      <stop offset="55%" stop-color="#3d3f49"/>
      <stop offset="100%" stop-color="#1b1d24"/>
    </linearGradient>
    <linearGradient id="inner_coal" x1="0" y1="0" x2="1" y2="1">
      <stop offset="0%" stop-color="#ffffff" stop-opacity="0.34"/>
      <stop offset="100%" stop-color="#ffffff" stop-opacity="0.05"/>
    </linearGradient>
  </defs>
  <ellipse cx="256" cy="458" rx="146" ry="28" fill="#000000" opacity="0.28"/>
  
  <g filter="url(#drop_coal)">
    <path d="M425.1 234.2 L412.0 363.3 L357.5 443.2 L266.7 469.2 L188.1 400.4 L114.6 395.0 L70.3 280.5 L125.2 224.9 L122.5 134.0 L251.3 139.8 L319.2 85.3 L403.2 142.2 Z" fill="url(#base_coal)" stroke="#121212" stroke-opacity="0.55" stroke-width="8"/>
    <path d="M375.5 241.0 L362.6 338.1 L328.7 396.7 L272.3 417.8 L201.0 366.3 L160.7 362.2 L129.8 282.4 L162.7 239.1 L160.0 159.5 L247.1 173.4 L310.2 128.7 L370.6 182.7 Z" fill="url(#inner_coal)"/>
    <path d="M375.5 241.0 L362.6 338.1 L328.7 396.7 L272.3 417.8 L201.0 366.3 L160.7 362.2 L129.8 282.4 L162.7 239.1 L160.0 159.5 L247.1 173.4 L310.2 128.7 L370.6 182.7 Z" fill="url(#rim_coal)" opacity="0.45"/>
    <path d="M268.9 269.4 L425.1 234.2 L412.0 363.3 Z" fill="#ffffff" opacity="0.163"/><path d="M268.1 257.6 L412.0 363.3 L357.5 443.2 Z" fill="#ffffff" opacity="0.106"/><path d="M273.2 270.2 L357.5 443.2 L266.7 469.2 Z" fill="#ffffff" opacity="0.100"/><path d="M249.8 264.8 L266.7 469.2 L188.1 400.4 Z" fill="#ffffff" opacity="0.075"/><path d="M241.1 263.1 L188.1 400.4 L114.6 395.0 Z" fill="#ffffff" opacity="0.071"/><path d="M251.6 260.7 L114.6 395.0 L70.3 280.5 Z" fill="#ffffff" opacity="0.151"/><path d="M261.6 236.0 L70.3 280.5 L125.2 224.9 Z" fill="#ffffff" opacity="0.174"/><path d="M254.2 242.2 L125.2 224.9 L122.5 134.0 Z" fill="#ffffff" opacity="0.081"/><path d="M249.2 238.8 L122.5 134.0 L251.3 139.8 Z" fill="#ffffff" opacity="0.188"/><path d="M262.6 242.6 L251.3 139.8 L319.2 85.3 Z" fill="#ffffff" opacity="0.062"/><path d="M267.6 252.1 L319.2 85.3 L403.2 142.2 Z" fill="#ffffff" opacity="0.155"/><path d="M242.9 256.1 L403.2 142.2 L425.1 234.2 Z" fill="#ffffff" opacity="0.172"/>
    <path d="M319.2 85.3 Q348.0 226.4 362.6 338.1" stroke="#0a0a0a" stroke-opacity="0.28" stroke-width="6" stroke-linecap="round" fill="none"/><path d="M266.7 469.2 Q337.6 350.1 375.5 241.0" stroke="#0a0a0a" stroke-opacity="0.28" stroke-width="6" stroke-linecap="round" fill="none"/><path d="M251.3 139.8 Q307.0 280.4 328.7 396.7" stroke="#0a0a0a" stroke-opacity="0.28" stroke-width="6" stroke-linecap="round" fill="none"/><path d="M425.1 234.2 Q302.0 308.2 160.7 362.2" stroke="#0a0a0a" stroke-opacity="0.28" stroke-width="6" stroke-linecap="round" fill="none"/><path d="M125.2 224.9 Q186.7 201.1 247.1 173.4" stroke="#0a0a0a" stroke-opacity="0.28" stroke-width="6" stroke-linecap="round" fill="none"/>
    <circle cx="300.1" cy="309.2" r="6.6" fill="#b8bdc7" opacity="0.430"/><circle cx="214.6" cy="134.0" r="8.5" fill="#b8bdc7" opacity="0.376"/><circle cx="148.3" cy="350.4" r="5.2" fill="#b8bdc7" opacity="0.441"/><circle cx="213.5" cy="355.8" r="5.9" fill="#b8bdc7" opacity="0.198"/><circle cx="138.4" cy="148.3" r="4.8" fill="#b8bdc7" opacity="0.256"/><circle cx="168.8" cy="209.6" r="9.5" fill="#b8bdc7" opacity="0.341"/><circle cx="324.0" cy="167.1" r="8.9" fill="#b8bdc7" opacity="0.167"/><circle cx="167.7" cy="231.8" r="6.3" fill="#b8bdc7" opacity="0.343"/><circle cx="252.8" cy="171.4" r="4.8" fill="#b8bdc7" opacity="0.194"/><circle cx="239.1" cy="243.7" r="6.5" fill="#b8bdc7" opacity="0.300"/><circle cx="206.2" cy="131.0" r="9.8" fill="#b8bdc7" opacity="0.345"/><circle cx="224.7" cy="180.5" r="6.0" fill="#b8bdc7" opacity="0.188"/><circle cx="138.4" cy="353.8" r="8.3" fill="#b8bdc7" opacity="0.383"/><circle cx="236.1" cy="283.6" r="7.9" fill="#b8bdc7" opacity="0.441"/><circle cx="288.8" cy="289.3" r="5.5" fill="#b8bdc7" opacity="0.367"/><circle cx="260.0" cy="289.6" r="5.1" fill="#b8bdc7" opacity="0.184"/><circle cx="257.7" cy="182.7" r="9.6" fill="#b8bdc7" opacity="0.248"/><circle cx="246.7" cy="249.5" r="4.6" fill="#b8bdc7" opacity="0.190"/>
  </g>
  <rect x="24" y="24" width="464" height="464" filter="url(#grain_coal)"/>
</svg>