<?xml version="1.0" encoding="UTF-8"?>
<svg width="512" height="512" viewBox="0 0 512 512" xmlns="http://www.w3.org/2000/svg" role="img" aria-label="copper_ore material icon">
  <defs>
    
    <filter id="drop_copper_ore" x="-30%" y="-30%" width="160%" height="170%">
      <feDropShadow dx="0" dy="20" stdDeviation="14" flood-color="#000000" flood-opacity="0.42"/>
    </filter>
    <filter id="grain_copper_ore" x="-20%" y="-20%" width="140%" height="140%">
      <feTurbulence type="fractalNoise" baseFrequency="0.8" numOctaves="3" seed="205" result="noise"/>
      <feColorMatrix type="saturate" values="0"/>
      <feComponentTransfer>
        <feFuncA type="table" tableValues="0 0.11"/>
      </feComponentTransfer>
    </filter>
    <filter id="surface_copper_ore" x="-20%" y="-20%" width="140%" height="140%">
      <feTurbulence type="fractalNoise" baseFrequency="0.028" numOctaves="2" seed="222" result="surfaceNoise"/>
      <feDisplacementMap in="SourceGraphic" in2="surfaceNoise" scale="8" xChannelSelector="R" yChannelSelector="G"/>
    </filter>
    <radialGradient id="rim_copper_ore" cx="0.35" cy="0.2" r="0.9">
      <stop offset="0%" stop-color="#ffffff" stop-opacity="0.4"/>
      <stop offset="70%" stop-color="#ffffff" stop-opacity="0.06"/>
      <stop offset="100%" stop-color="#000000" stop-opacity="0.22"/>
    </radialGradient>
    
    <linearGradient id="base_copper_ore" x1="0" y1="0" x2="1" y2="1">
      <stop offset="0%" stop-color="#d99563"/>
      <stop offset="55%" stop-color="#9f633f"/>
      <stop offset="100%" stop-color="#623d2a"/>
    </linearGradient>
    <linearGradient id="inner_copper_ore" x1="0" y1="0" x2="1" y2="1">
      <stop offset="0%" stop-color="#ffffff" stop-opacity="0.34"/>
      <stop offset="100%" stop-color="#ffffff" stop-opacity="0.05"/>
    </linearGradient>
  </defs>
  <ellipse cx="256" cy="458" rx="146" ry="28" fill="#000000" opacity="0.28"/>
  
  <g filter="url(#drop_copper_ore)">
    <path d="M419.6 268.6 L417.1 359.4 L323.9 412.4 L261.5 476.6 L181.3 395.3 L104.3 356.5 L68.5 256.8 L104.0 160.6 L187.1 133.9 L267.3 114.0 L337.6 74.6 L382.5 172.8 Z" fill="url(#base_copper_ore)" stroke="#121212" stroke-opacity="0.55" stroke-width="8"/>
    <path d="M367.4 258.6 L371.4 336.6 L312.9 364.1 L254.8 416.4 L203.5 360.6 L152.7 322.8 L126.6 260.2 L154.1 196.2 L212.9 173.7 L263.1 157.2 L310.0 131.6 L346.3 189.4 Z" fill="url(#inner_copper_ore)"/>
    <path d="M367.4 258.6 L371.4 336.6 L312.9 364.1 L254.8 416.4 L203.5 360.6 L152.7 322.8 L126.6 260.2 L154.1 196.2 L212.9 173.7 L263.1 157.2 L310.0 131.6 L346.3 189.4 Z" fill="url(#rim_copper_ore)" opacity="0.45"/>
    <path d="M245.0 261.5 L419.6 268.6 L417.1 359.4 Z" fill="#ffffff" opacity="0.117"/><path d="M242.4 245.9 L417.1 359.4 L323.9 412.4 Z" fill="#ffffff" opacity="0.161"/><path d="M248.7 267.5 L323.9 412.4 L261.5 476.6 Z" fill="#ffffff" opacity="0.196"/><path d="M247.8 238.7 L261.5 476.6 L181.3 395.3 Z" fill="#ffffff" opacity="0.148"/><path d="M240.5 251.1 L181.3 395.3 L104.3 356.5 Z" fill="#ffffff" opacity="0.094"/><path d="M239.8 246.7 L104.3 356.5 L68.5 256.8 Z" fill="#ffffff" opacity="0.083"/><path d="M240.2 250.5 L68.5 256.8 L104.0 160.6 Z" fill="#ffffff" opacity="0.116"/><path d="M264.3 236.3 L104.0 160.6 L187.1 133.9 Z" fill="#ffffff" opacity="0.185"/><path d="M256.8 264.5 L187.1 133.9 L267.3 114.0 Z" fill="#ffffff" opacity="0.146"/><path d="M242.7 270.6 L267.3 114.0 L337.6 74.6 Z" fill="#ffffff" opacity="0.184"/><path d="M255.4 253.8 L337.6 74.6 L382.5 172.8 Z" fill="#ffffff" opacity="0.138"/><path d="M263.5 241.1 L382.5 172.8 L419.6 268.6 Z" fill="#ffffff" opacity="0.104"/>
    <path d="M337.6 74.6 Q347.9 214.0 371.4 336.6" stroke="#0a0a0a" stroke-opacity="0.28" stroke-width="6" stroke-linecap="round" fill="none"/><path d="M382.5 172.8 Q340.4 148.3 263.1 157.2" stroke="#0a0a0a" stroke-opacity="0.28" stroke-width="6" stroke-linecap="round" fill="none"/><path d="M267.3 114.0 Q185.5 176.9 126.6 260.2" stroke="#0a0a0a" stroke-opacity="0.28" stroke-width="6" stroke-linecap="round" fill="none"/><path d="M417.1 359.4 Q339.6 244.8 263.1 157.2" stroke="#0a0a0a" stroke-opacity="0.28" stroke-width="6" stroke-linecap="round" fill="none"/><path d="M419.6 268.6 Q373.8 314.1 312.9 364.1" stroke="#0a0a0a" stroke-opacity="0.28" stroke-width="6" stroke-linecap="round" fill="none"/>
    <circle cx="348.8" cy="209.3" r="5.5" fill="#ffd0ab" opacity="0.317"/><circle cx="370.1" cy="244.2" r="6.8" fill="#ffd0ab" opacity="0.216"/><circle cx="186.2" cy="134.2" r="5.3" fill="#ffd0ab" opacity="0.440"/><circle cx="272.6" cy="321.5" r="8.0" fill="#ffd0ab" opacity="0.190"/><circle cx="285.9" cy="238.9" r="8.4" fill="#ffd0ab" opacity="0.276"/><circle cx="233.3" cy="305.1" r="6.9" fill="#ffd0ab" opacity="0.303"/><circle cx="174.3" cy="287.2" r="9.0" fill="#ffd0ab" opacity="0.174"/><circle cx="161.7" cy="151.6" r="9.5" fill="#ffd0ab" opacity="0.393"/><circle cx="373.3" cy="182.0" r="9.7" fill="#ffd0ab" opacity="0.441"/><circle cx="288.7" cy="143.3" r="7.2" fill="#ffd0ab" opacity="0.377"/><circle cx="193.2" cy="163.4" r="8.1" fill="#ffd0ab" opacity="0.419"/><circle cx="365.3" cy="146.4" r="5.7" fill="#ffd0ab" opacity="0.412"/><circle cx="256.1" cy="326.5" r="5.9" fill="#ffd0ab" opacity="0.293"/><circle cx="327.8" cy="256.6" r="4.7" fill="#ffd0ab" opacity="0.214"/><circle cx="150.1" cy="237.1" r="7.4" fill="#ffd0ab" opacity="0.280"/><circle cx="165.8" cy="301.3" r="8.0" fill="#ffd0ab" opacity="0.255"/><circle cx="244.7" cy="349.3" r="7.3" fill="#ffd0ab" opacity="0.257"/><circle cx="353.4" cy="249.5" r="9.3" fill="#ffd0ab" opacity="0.379"/>
  </g>
  <rect x="24" y="24" width="464" height="464" filter="url(#grain_copper_ore)"/>
</svg>