<?xml version="1.0" encoding="UTF-8"?>
<svg width="512" height="512" viewBox="0 0 512 512" xmlns="http://www.w3.org/2000/svg" role="img" aria-label="copper_ingot material icon">
  <defs>
    
    <filter id="drop_copper_ingot" x="-30%" y="-30%" width="160%" height="170%">
      <feDropShadow dx="0" dy="20" stdDeviation="14" flood-color="#000000" flood-opacity="0.42"/>
    </filter>
    <filter id="grain_copper_ingot" x="-20%" y="-20%" width="140%" height="140%">
      <feTurbulence type="fractalNoise" baseFrequency="0.8" numOctaves="3" seed="145" result="noise"/>
      <feColorMatrix type="saturate" values="0"/>
      <feComponentTransfer>
        <feFuncA type="table" tableValues="0 0.11"/>
      </feComponentTransfer>
    </filter>
    <filter id="surface_copper_ingot" x="-20%" y="-20%" width="140%" height="140%">
      <feTurbulence type="fractalNoise" baseFrequency="0.028" numOctaves="2" seed="162" result="surfaceNoise"/>
      <feDisplacementMap in="SourceGraphic" in2="surfaceNoise" scale="8" xChannelSelector="R" yChannelSelector="G"/>
    </filter>
    <radialGradient id="rim_copper_ingot" cx="0.35" cy="0.2" r="0.9">
      <stop offset="0%" stop-color="#ffffff" stop-opacity="0.4"/>
      <stop offset="70%" stop-color="#ffffff" stop-opacity="0.06"/>
      <stop offset="100%" stop-color="#000000" stop-opacity="0.22"/>
    </radialGradient>
    
    <linearGradient id="top_copper_ingot" x1="0" y1="0" x2="1" y2="1">
      <stop offset="0%" stop-color="#ffffff" stop-opacity="0.54"/>
      <stop offset="100%" stop-color="#ffffff" stop-opacity="0.1"/>
    </linearGradient>
    <linearGradient id="front_copper_ingot" x1="0" y1="0" x2="1" y2="1">
      <stop offset="0%" stop-color="#f19a58"/>
      <stop offset="52%" stop-color="#c96e3a"/>
      <stop offset="100%" stop-color="#7f4728"/>
    </linearGradient>
  </defs>
  <ellipse cx="256" cy="458" rx="146" ry="28" fill="#000000" opacity="0.28"/>
  
  <g filter="url(#drop_copper_ingot)">
    <path d="M118 284L170 176H344L396 284L360 358H152Z" fill="url(#front_copper_ingot)" stroke="#20130d" stroke-opacity="0.62" stroke-width="8"/>
    <path d="M170 176L196 138H320L344 176Z" fill="url(#top_copper_ingot)"/>
    <path d="M140 284H374" stroke="#000000" stroke-opacity="0.24" stroke-width="8"/>
    <path d="M174 332C226 344 286 344 336 332" stroke="#ffffff" stroke-opacity="0.2" stroke-width="6" stroke-linecap="round"/>
    <path d="M186 208C236 196 282 194 326 204" stroke="#ffffff" stroke-opacity="0.23" stroke-width="6" stroke-linecap="round"/>
  </g>
  <rect x="24" y="24" width="464" height="464" filter="url(#grain_copper_ingot)"/>
</svg>