<?xml version="1.0" encoding="UTF-8"?>
<svg width="512" height="512" viewBox="0 0 512 512" xmlns="http://www.w3.org/2000/svg" role="img" aria-label="diamond material icon">
  <defs>
    
    <filter id="drop_diamond" x="-30%" y="-30%" width="160%" height="170%">
      <feDropShadow dx="0" dy="20" stdDeviation="14" flood-color="#000000" flood-opacity="0.42"/>
    </filter>
    <filter id="grain_diamond" x="-20%" y="-20%" width="140%" height="140%">
      <feTurbulence type="fractalNoise" baseFrequency="0.8" numOctaves="3" seed="239" result="noise"/>
      <feColorMatrix type="saturate" values="0"/>
      <feComponentTransfer>
        <feFuncA type="table" tableValues="0 0.11"/>
      </feComponentTransfer>
    </filter>
    <filter id="surface_diamond" x="-20%" y="-20%" width="140%" height="140%">
      <feTurbulence type="fractalNoise" baseFrequency="0.028" numOctaves="2" seed="256" result="surfaceNoise"/>
      <feDisplacementMap in="SourceGraphic" in2="surfaceNoise" scale="8" xChannelSelector="R" yChannelSelector="G"/>
    </filter>
    <radialGradient id="rim_diamond" cx="0.35" cy="0.2" r="0.9">
      <stop offset="0%" stop-color="#ffffff" stop-opacity="0.4"/>
      <stop offset="70%" stop-color="#ffffff" stop-opacity="0.06"/>
      <stop offset="100%" stop-color="#000000" stop-opacity="0.22"/>
    </radialGradient>
    
    <linearGradient id="base_diamond" x1="0" y1="0" x2="1" y2="1">
      <stop offset="0%" stop-color="#f7fcff"/>
      <stop offset="45%" stop-color="#d4e7f7"/>
      <stop offset="100%" stop-color="#8ca6bb"/>
    </linearGradient>
    <radialGradient id="glow_diamond" cx="0.4" cy="0.28" r="0.8">
      <stop offset="0%" stop-color="#ffffff" stop-opacity="0.42"/>
      <stop offset="100%" stop-color="#ffffff" stop-opacity="0"/>
    </radialGradient>
  </defs>
  <ellipse cx="256" cy="458" rx="146" ry="28" fill="#000000" opacity="0.28"/>
  
  <g filter="url(#drop_diamond)">
    <path d="M421.8 255.9 L359.1 376.7 L257.0 429.0 L136.3 363.7 L104.0 259.0 L146.4 154.2 L263.6 94.4 L365.1 147.2 Z" fill="url(#base_diamond)" stroke="#0f1320" stroke-opacity="0.65" stroke-width="8"/>
    <path d="M421.8 255.9 L359.1 376.7 L257.0 429.0 L136.3 363.7 L104.0 259.0 L146.4 154.2 L263.6 94.4 L365.1 147.2 Z" fill="url(#glow_diamond)"/>
    <path d="M261.6 258.3 L421.8 255.9 L397.3 304.8 Z" fill="#ffffff" opacity="0.272"/><path d="M261.6 258.3 L397.3 304.8 L359.1 376.7 Z" fill="#000000" opacity="0.096"/><path d="M261.6 258.3 L359.1 376.7 L319.6 393.3 Z" fill="#ffffff" opacity="0.176"/><path d="M261.6 258.3 L319.6 393.3 L257.0 429.0 Z" fill="#000000" opacity="0.109"/><path d="M261.6 258.3 L257.0 429.0 L190.7 392.7 Z" fill="#ffffff" opacity="0.263"/><path d="M261.6 258.3 L190.7 392.7 L136.3 363.7 Z" fill="#000000" opacity="0.088"/><path d="M261.6 258.3 L136.3 363.7 L115.5 301.6 Z" fill="#ffffff" opacity="0.328"/><path d="M261.6 258.3 L115.5 301.6 L104.0 259.0 Z" fill="#000000" opacity="0.169"/><path d="M261.6 258.3 L104.0 259.0 L127.6 204.4 Z" fill="#ffffff" opacity="0.265"/><path d="M261.6 258.3 L127.6 204.4 L146.4 154.2 Z" fill="#000000" opacity="0.089"/><path d="M261.6 258.3 L146.4 154.2 L212.6 127.3 Z" fill="#ffffff" opacity="0.222"/><path d="M261.6 258.3 L212.6 127.3 L263.6 94.4 Z" fill="#000000" opacity="0.146"/><path d="M261.6 258.3 L263.6 94.4 L322.0 114.6 Z" fill="#ffffff" opacity="0.374"/><path d="M261.6 258.3 L322.0 114.6 L365.1 147.2 Z" fill="#000000" opacity="0.174"/><path d="M261.6 258.3 L365.1 147.2 L394.1 190.5 Z" fill="#ffffff" opacity="0.275"/><path d="M261.6 258.3 L394.1 190.5 L421.8 255.9 Z" fill="#000000" opacity="0.147"/>
    <circle cx="299.8" cy="230.6" r="7.0" fill="#ffffff" opacity="0.230"/><circle cx="243.7" cy="261.4" r="8.1" fill="#ffffff" opacity="0.265"/><circle cx="279.0" cy="149.9" r="8.2" fill="#ffffff" opacity="0.253"/><circle cx="172.1" cy="153.6" r="5.6" fill="#ffffff" opacity="0.336"/><circle cx="216.6" cy="251.6" r="9.0" fill="#ffffff" opacity="0.298"/><circle cx="181.5" cy="150.1" r="6.1" fill="#ffffff" opacity="0.295"/><circle cx="214.5" cy="140.7" r="7.0" fill="#ffffff" opacity="0.360"/>
    <path d="M382.8 258.7 L338.0 347.6 L256.1 379.1 L173.4 334.3 L140.0 255.3 L170.5 187.1 L256.5 138.9 L335.9 170.9 Z" fill="url(#rim_diamond)" opacity="0.38"/>
  </g>
  <rect x="24" y="24" width="464" height="464" filter="url(#grain_diamond)"/>
</svg>