<?xml version="1.0" encoding="UTF-8"?>
<svg width="512" height="512" viewBox="0 0 512 512" xmlns="http://www.w3.org/2000/svg" role="img" aria-label="emerald material icon">
  <defs>
    
    <filter id="drop_emerald" x="-30%" y="-30%" width="160%" height="170%">
      <feDropShadow dx="0" dy="20" stdDeviation="14" flood-color="#000000" flood-opacity="0.42"/>
    </filter>
    <filter id="grain_emerald" x="-20%" y="-20%" width="140%" height="140%">
      <feTurbulence type="fractalNoise" baseFrequency="0.8" numOctaves="3" seed="237" result="noise"/>
      <feColorMatrix type="saturate" values="0"/>
      <feComponentTransfer>
        <feFuncA type="table" tableValues="0 0.11"/>
      </feComponentTransfer>
    </filter>
    <filter id="surface_emerald" x="-20%" y="-20%" width="140%" height="140%">
      <feTurbulence type="fractalNoise" baseFrequency="0.028" numOctaves="2" seed="254" result="surfaceNoise"/>
      <feDisplacementMap in="SourceGraphic" in2="surfaceNoise" scale="8" xChannelSelector="R" yChannelSelector="G"/>
    </filter>
    <radialGradient id="rim_emerald" cx="0.35" cy="0.2" r="0.9">
      <stop offset="0%" stop-color="#ffffff" stop-opacity="0.4"/>
      <stop offset="70%" stop-color="#ffffff" stop-opacity="0.06"/>
      <stop offset="100%" stop-color="#000000" stop-opacity="0.22"/>
    </radialGradient>
    
    <linearGradient id="base_emerald" x1="0" y1="0" x2="1" y2="1">
      <stop offset="0%" stop-color="#9df5b8"/>
      <stop offset="45%" stop-color="#3eb66e"/>
      <stop offset="100%" stop-color="#1b6a3c"/>
    </linearGradient>
    <radialGradient id="glow_emerald" cx="0.4" cy="0.28" r="0.8">
      <stop offset="0%" stop-color="#dcffe8" stop-opacity="0.42"/>
      <stop offset="100%" stop-color="#ffffff" stop-opacity="0"/>
    </radialGradient>
  </defs>
  <ellipse cx="256" cy="458" rx="146" ry="28" fill="#000000" opacity="0.28"/>
  
  <g filter="url(#drop_emerald)">
    <path d="M411.0 257.9 L370.7 367.9 L277.6 407.9 L147.7 399.5 L90.7 260.5 L117.9 155.7 L248.8 108.2 L382.1 134.1 Z" fill="url(#base_emerald)" stroke="#0f1320" stroke-opacity="0.65" stroke-width="8"/>
    <path d="M411.0 257.9 L370.7 367.9 L277.6 407.9 L147.7 399.5 L90.7 260.5 L117.9 155.7 L248.8 108.2 L382.1 134.1 Z" fill="url(#glow_emerald)"/>
    <path d="M261.7 245.7 L411.0 257.9 L384.8 307.8 Z" fill="#ffffff" opacity="0.164"/><path d="M261.7 245.7 L384.8 307.8 L370.7 367.9 Z" fill="#000000" opacity="0.166"/><path d="M261.7 245.7 L370.7 367.9 L330.4 396.3 Z" fill="#ffffff" opacity="0.344"/><path d="M261.7 245.7 L330.4 396.3 L277.6 407.9 Z" fill="#000000" opacity="0.191"/><path d="M261.7 245.7 L277.6 407.9 L217.1 404.3 Z" fill="#ffffff" opacity="0.177"/><path d="M261.7 245.7 L217.1 404.3 L147.7 399.5 Z" fill="#000000" opacity="0.163"/><path d="M261.7 245.7 L147.7 399.5 L114.4 332.5 Z" fill="#ffffff" opacity="0.184"/><path d="M261.7 245.7 L114.4 332.5 L90.7 260.5 Z" fill="#000000" opacity="0.159"/><path d="M261.7 245.7 L90.7 260.5 L98.9 210.3 Z" fill="#ffffff" opacity="0.339"/><path d="M261.7 245.7 L98.9 210.3 L117.9 155.7 Z" fill="#000000" opacity="0.087"/><path d="M261.7 245.7 L117.9 155.7 L184.8 138.9 Z" fill="#ffffff" opacity="0.200"/><path d="M261.7 245.7 L184.8 138.9 L248.8 108.2 Z" fill="#000000" opacity="0.186"/><path d="M261.7 245.7 L248.8 108.2 L311.3 118.8 Z" fill="#ffffff" opacity="0.172"/><path d="M261.7 245.7 L311.3 118.8 L382.1 134.1 Z" fill="#000000" opacity="0.114"/><path d="M261.7 245.7 L382.1 134.1 L392.9 195.3 Z" fill="#ffffff" opacity="0.305"/><path d="M261.7 245.7 L392.9 195.3 L411.0 257.9 Z" fill="#000000" opacity="0.195"/>
    <circle cx="190.5" cy="218.5" r="5.0" fill="#ffffff" opacity="0.217"/><circle cx="175.3" cy="145.1" r="10.6" fill="#ffffff" opacity="0.296"/><circle cx="221.8" cy="132.6" r="6.3" fill="#ffffff" opacity="0.243"/><circle cx="214.9" cy="251.8" r="10.3" fill="#ffffff" opacity="0.321"/><circle cx="185.5" cy="218.8" r="6.3" fill="#ffffff" opacity="0.295"/><circle cx="203.7" cy="180.4" r="9.7" fill="#ffffff" opacity="0.424"/><circle cx="169.8" cy="189.7" r="7.7" fill="#ffffff" opacity="0.410"/>
    <path d="M369.8 255.4 L339.6 333.5 L269.9 375.1 L169.1 356.4 L140.6 258.7 L152.1 179.6 L248.1 147.5 L356.3 166.3 Z" fill="url(#rim_emerald)" opacity="0.38"/>
  </g>
  <rect x="24" y="24" width="464" height="464" filter="url(#grain_emerald)"/>
</svg>