<?xml version="1.0" encoding="UTF-8"?>
<svg width="512" height="512" viewBox="0 0 512 512" xmlns="http://www.w3.org/2000/svg" role="img" aria-label="goblin_ear material icon">
  <defs>
    
    <filter id="drop_goblin_ear" x="-30%" y="-30%" width="160%" height="170%">
      <feDropShadow dx="0" dy="20" stdDeviation="14" flood-color="#000000" flood-opacity="0.42"/>
    </filter>
    <filter id="grain_goblin_ear" x="-20%" y="-20%" width="140%" height="140%">
      <feTurbulence type="fractalNoise" baseFrequency="0.8" numOctaves="3" seed="183" result="noise"/>
      <feColorMatrix type="saturate" values="0"/>
      <feComponentTransfer>
        <feFuncA type="table" tableValues="0 0.11"/>
      </feComponentTransfer>
    </filter>
    <filter id="surface_goblin_ear" x="-20%" y="-20%" width="140%" height="140%">
      <feTurbulence type="fractalNoise" baseFrequency="0.028" numOctaves="2" seed="200" result="surfaceNoise"/>
      <feDisplacementMap in="SourceGraphic" in2="surfaceNoise" scale="8" xChannelSelector="R" yChannelSelector="G"/>
    </filter>
    <radialGradient id="rim_goblin_ear" cx="0.35" cy="0.2" r="0.9">
      <stop offset="0%" stop-color="#ffffff" stop-opacity="0.4"/>
      <stop offset="70%" stop-color="#ffffff" stop-opacity="0.06"/>
      <stop offset="100%" stop-color="#000000" stop-opacity="0.22"/>
    </radialGradient>
    
    <linearGradient id="ear_goblin_ear" x1="0" y1="0" x2="1" y2="1">
      <stop offset="0%" stop-color="#a8bf80"/>
      <stop offset="54%" stop-color="#6f8f52"/>
      <stop offset="100%" stop-color="#4a6338"/>
    </linearGradient>
  </defs>
  <ellipse cx="256" cy="458" rx="146" ry="28" fill="#000000" opacity="0.28"/>
  
  <g filter="url(#drop_goblin_ear)" transform="rotate(-14 256 256)">
    <path d="M236 68C328 78 398 150 406 246C414 342 366 430 274 438C204 442 148 386 140 318C132 254 160 206 186 182C214 158 240 150 256 162C272 174 272 206 252 230C228 258 216 286 220 314C224 346 250 362 280 354C322 342 342 294 334 242C322 182 282 146 236 130Z" fill="url(#ear_goblin_ear)" stroke="#3a1f1f" stroke-opacity="0.58" stroke-width="8"/>
    <path d="M252 194C224 224 208 266 216 304C224 340 256 356 292 340" stroke="#7a3434" stroke-opacity="0.58" stroke-width="8" stroke-linecap="round" fill="none"/>
  </g>
  <rect x="24" y="24" width="464" height="464" filter="url(#grain_goblin_ear)"/>
</svg>