<?xml version="1.0" encoding="UTF-8"?>
<svg width="512" height="512" viewBox="0 0 512 512" xmlns="http://www.w3.org/2000/svg" role="img" aria-label="gold_ore material icon">
  <defs>
    
    <filter id="drop_gold_ore" x="-30%" y="-30%" width="160%" height="170%">
      <feDropShadow dx="0" dy="20" stdDeviation="14" flood-color="#000000" flood-opacity="0.42"/>
    </filter>
    <filter id="grain_gold_ore" x="-20%" y="-20%" width="140%" height="140%">
      <feTurbulence type="fractalNoise" baseFrequency="0.8" numOctaves="3" seed="209" result="noise"/>
      <feColorMatrix type="saturate" values="0"/>
      <feComponentTransfer>
        <feFuncA type="table" tableValues="0 0.11"/>
      </feComponentTransfer>
    </filter>
    <filter id="surface_gold_ore" x="-20%" y="-20%" width="140%" height="140%">
      <feTurbulence type="fractalNoise" baseFrequency="0.028" numOctaves="2" seed="226" result="surfaceNoise"/>
      <feDisplacementMap in="SourceGraphic" in2="surfaceNoise" scale="8" xChannelSelector="R" yChannelSelector="G"/>
    </filter>
    <radialGradient id="rim_gold_ore" cx="0.35" cy="0.2" r="0.9">
      <stop offset="0%" stop-color="#ffffff" stop-opacity="0.4"/>
      <stop offset="70%" stop-color="#ffffff" stop-opacity="0.06"/>
      <stop offset="100%" stop-color="#000000" stop-opacity="0.22"/>
    </radialGradient>
    
    <linearGradient id="base_gold_ore" x1="0" y1="0" x2="1" y2="1">
      <stop offset="0%" stop-color="#ffd35f"/>
      <stop offset="55%" stop-color="#d39f2f"/>
      <stop offset="100%" stop-color="#8b6415"/>
    </linearGradient>
    <linearGradient id="inner_gold_ore" x1="0" y1="0" x2="1" y2="1">
      <stop offset="0%" stop-color="#ffffff" stop-opacity="0.34"/>
      <stop offset="100%" stop-color="#ffffff" stop-opacity="0.05"/>
    </linearGradient>
  </defs>
  <ellipse cx="256" cy="458" rx="146" ry="28" fill="#000000" opacity="0.28"/>
  
  <g filter="url(#drop_gold_ore)">
    <path d="M412.9 292.4 L371.2 361.9 L305.0 450.3 L214.7 468.9 L113.2 391.1 L128.2 304.4 L116.4 231.8 L148.1 160.3 L235.1 109.5 L282.9 130.8 L400.9 121.7 L435.7 220.0 Z" fill="url(#base_gold_ore)" stroke="#121212" stroke-opacity="0.55" stroke-width="8"/>
    <path d="M367.3 287.6 L346.7 330.0 L284.8 391.1 L217.4 413.5 L159.4 355.8 L168.9 299.1 L163.5 237.0 L170.7 189.8 L244.6 158.3 L274.7 163.2 L364.7 162.7 L385.1 233.0 Z" fill="url(#inner_gold_ore)"/>
    <path d="M367.3 287.6 L346.7 330.0 L284.8 391.1 L217.4 413.5 L159.4 355.8 L168.9 299.1 L163.5 237.0 L170.7 189.8 L244.6 158.3 L274.7 163.2 L364.7 162.7 L385.1 233.0 Z" fill="url(#rim_gold_ore)" opacity="0.45"/>
    <path d="M272.4 256.9 L412.9 292.4 L371.2 361.9 Z" fill="#ffffff" opacity="0.188"/><path d="M251.9 251.0 L371.2 361.9 L305.0 450.3 Z" fill="#ffffff" opacity="0.195"/><path d="M272.6 270.9 L305.0 450.3 L214.7 468.9 Z" fill="#ffffff" opacity="0.104"/><path d="M262.3 271.0 L214.7 468.9 L113.2 391.1 Z" fill="#ffffff" opacity="0.157"/><path d="M252.5 246.7 L113.2 391.1 L128.2 304.4 Z" fill="#ffffff" opacity="0.098"/><path d="M263.1 263.2 L128.2 304.4 L116.4 231.8 Z" fill="#ffffff" opacity="0.160"/><path d="M255.9 249.7 L116.4 231.8 L148.1 160.3 Z" fill="#ffffff" opacity="0.125"/><path d="M259.5 260.9 L148.1 160.3 L235.1 109.5 Z" fill="#ffffff" opacity="0.189"/><path d="M258.7 241.6 L235.1 109.5 L282.9 130.8 Z" fill="#ffffff" opacity="0.163"/><path d="M268.1 261.7 L282.9 130.8 L400.9 121.7 Z" fill="#ffffff" opacity="0.175"/><path d="M265.3 261.0 L400.9 121.7 L435.7 220.0 Z" fill="#ffffff" opacity="0.100"/><path d="M256.2 269.0 L435.7 220.0 L412.9 292.4 Z" fill="#ffffff" opacity="0.104"/>
    <path d="M371.2 361.9 Q342.1 334.3 346.7 330.0" stroke="#0a0a0a" stroke-opacity="0.28" stroke-width="6" stroke-linecap="round" fill="none"/><path d="M400.9 121.7 Q397.1 211.5 367.3 287.6" stroke="#0a0a0a" stroke-opacity="0.28" stroke-width="6" stroke-linecap="round" fill="none"/><path d="M371.2 361.9 Q372.7 310.2 385.1 233.0" stroke="#0a0a0a" stroke-opacity="0.28" stroke-width="6" stroke-linecap="round" fill="none"/><path d="M235.1 109.5 Q272.3 260.4 284.8 391.1" stroke="#0a0a0a" stroke-opacity="0.28" stroke-width="6" stroke-linecap="round" fill="none"/><path d="M113.2 391.1 Q244.1 359.8 346.7 330.0" stroke="#0a0a0a" stroke-opacity="0.28" stroke-width="6" stroke-linecap="round" fill="none"/>
    <circle cx="210.1" cy="290.1" r="7.9" fill="#fff0ae" opacity="0.211"/><circle cx="368.1" cy="242.2" r="6.8" fill="#fff0ae" opacity="0.282"/><circle cx="175.4" cy="212.9" r="6.2" fill="#fff0ae" opacity="0.201"/><circle cx="234.5" cy="221.0" r="8.7" fill="#fff0ae" opacity="0.356"/><circle cx="212.6" cy="189.5" r="6.7" fill="#fff0ae" opacity="0.379"/><circle cx="150.0" cy="354.5" r="5.6" fill="#fff0ae" opacity="0.277"/><circle cx="272.6" cy="184.2" r="4.8" fill="#fff0ae" opacity="0.430"/><circle cx="359.8" cy="259.2" r="10.0" fill="#fff0ae" opacity="0.410"/><circle cx="255.1" cy="362.5" r="8.0" fill="#fff0ae" opacity="0.430"/><circle cx="173.5" cy="215.6" r="6.1" fill="#fff0ae" opacity="0.431"/><circle cx="274.8" cy="245.8" r="6.0" fill="#fff0ae" opacity="0.173"/><circle cx="285.1" cy="205.8" r="8.4" fill="#fff0ae" opacity="0.258"/><circle cx="294.1" cy="207.3" r="5.9" fill="#fff0ae" opacity="0.329"/><circle cx="190.8" cy="165.2" r="7.4" fill="#fff0ae" opacity="0.214"/><circle cx="346.2" cy="358.5" r="4.2" fill="#fff0ae" opacity="0.421"/><circle cx="208.2" cy="344.5" r="6.6" fill="#fff0ae" opacity="0.246"/><circle cx="260.2" cy="282.4" r="7.3" fill="#fff0ae" opacity="0.425"/><circle cx="316.4" cy="212.6" r="6.0" fill="#fff0ae" opacity="0.448"/>
  </g>
  <rect x="24" y="24" width="464" height="464" filter="url(#grain_gold_ore)"/>
</svg>