<?xml version="1.0" encoding="UTF-8"?>
<svg width="512" height="512" viewBox="0 0 512 512" xmlns="http://www.w3.org/2000/svg" role="img" aria-label="green_crystal material icon">
  <defs>
    
    <filter id="drop_green_crystal" x="-30%" y="-30%" width="160%" height="170%">
      <feDropShadow dx="0" dy="20" stdDeviation="14" flood-color="#000000" flood-opacity="0.42"/>
    </filter>
    <filter id="grain_green_crystal" x="-20%" y="-20%" width="140%" height="140%">
      <feTurbulence type="fractalNoise" baseFrequency="0.8" numOctaves="3" seed="245" result="noise"/>
      <feColorMatrix type="saturate" values="0"/>
      <feComponentTransfer>
        <feFuncA type="table" tableValues="0 0.11"/>
      </feComponentTransfer>
    </filter>
    <filter id="surface_green_crystal" x="-20%" y="-20%" width="140%" height="140%">
      <feTurbulence type="fractalNoise" baseFrequency="0.028" numOctaves="2" seed="262" result="surfaceNoise"/>
      <feDisplacementMap in="SourceGraphic" in2="surfaceNoise" scale="8" xChannelSelector="R" yChannelSelector="G"/>
    </filter>
    <radialGradient id="rim_green_crystal" cx="0.35" cy="0.2" r="0.9">
      <stop offset="0%" stop-color="#ffffff" stop-opacity="0.4"/>
      <stop offset="70%" stop-color="#ffffff" stop-opacity="0.06"/>
      <stop offset="100%" stop-color="#000000" stop-opacity="0.22"/>
    </radialGradient>
    
    <linearGradient id="base_green_crystal" x1="0" y1="0" x2="1" y2="1">
      <stop offset="0%" stop-color="#a9ffbf"/>
      <stop offset="45%" stop-color="#4ec579"/>
      <stop offset="100%" stop-color="#266f45"/>
    </linearGradient>
    <radialGradient id="glow_green_crystal" cx="0.4" cy="0.28" r="0.8">
      <stop offset="0%" stop-color="#e4ffeb" stop-opacity="0.42"/>
      <stop offset="100%" stop-color="#ffffff" stop-opacity="0"/>
    </radialGradient>
  </defs>
  <ellipse cx="256" cy="458" rx="146" ry="28" fill="#000000" opacity="0.28"/>
  
  <g filter="url(#drop_green_crystal)">
    <path d="M402.8 216.5 L396.8 360.3 L282.6 408.3 L167.6 406.4 L99.0 299.1 L107.2 188.3 L207.0 96.6 L335.5 128.8 Z" fill="url(#base_green_crystal)" stroke="#0f1320" stroke-opacity="0.65" stroke-width="8"/>
    <path d="M402.8 216.5 L396.8 360.3 L282.6 408.3 L167.6 406.4 L99.0 299.1 L107.2 188.3 L207.0 96.6 L335.5 128.8 Z" fill="url(#glow_green_crystal)"/>
    <path d="M247.4 270.8 L402.8 216.5 L396.8 294.4 Z" fill="#ffffff" opacity="0.355"/><path d="M247.4 270.8 L396.8 294.4 L396.8 360.3 Z" fill="#000000" opacity="0.194"/><path d="M247.4 270.8 L396.8 360.3 L348.1 391.3 Z" fill="#ffffff" opacity="0.200"/><path d="M247.4 270.8 L348.1 391.3 L282.6 408.3 Z" fill="#000000" opacity="0.102"/><path d="M247.4 270.8 L282.6 408.3 L233.3 407.1 Z" fill="#ffffff" opacity="0.338"/><path d="M247.4 270.8 L233.3 407.1 L167.6 406.4 Z" fill="#000000" opacity="0.155"/><path d="M247.4 270.8 L167.6 406.4 L141.6 355.6 Z" fill="#ffffff" opacity="0.196"/><path d="M247.4 270.8 L141.6 355.6 L99.0 299.1 Z" fill="#000000" opacity="0.094"/><path d="M247.4 270.8 L99.0 299.1 L105.0 244.4 Z" fill="#ffffff" opacity="0.210"/><path d="M247.4 270.8 L105.0 244.4 L107.2 188.3 Z" fill="#000000" opacity="0.182"/><path d="M247.4 270.8 L107.2 188.3 L152.9 130.8 Z" fill="#ffffff" opacity="0.296"/><path d="M247.4 270.8 L152.9 130.8 L207.0 96.6 Z" fill="#000000" opacity="0.191"/><path d="M247.4 270.8 L207.0 96.6 L267.5 101.5 Z" fill="#ffffff" opacity="0.192"/><path d="M247.4 270.8 L267.5 101.5 L335.5 128.8 Z" fill="#000000" opacity="0.134"/><path d="M247.4 270.8 L335.5 128.8 L361.0 176.5 Z" fill="#ffffff" opacity="0.173"/><path d="M247.4 270.8 L361.0 176.5 L402.8 216.5 Z" fill="#000000" opacity="0.119"/>
    <circle cx="291.7" cy="241.5" r="5.7" fill="#ffffff" opacity="0.428"/><circle cx="326.0" cy="253.3" r="10.6" fill="#ffffff" opacity="0.339"/><circle cx="199.6" cy="136.5" r="6.8" fill="#ffffff" opacity="0.384"/><circle cx="319.1" cy="230.7" r="4.3" fill="#ffffff" opacity="0.355"/><circle cx="274.1" cy="154.3" r="4.1" fill="#ffffff" opacity="0.244"/><circle cx="249.3" cy="211.1" r="4.5" fill="#ffffff" opacity="0.244"/><circle cx="196.1" cy="127.8" r="6.0" fill="#ffffff" opacity="0.201"/>
    <path d="M367.0 220.6 L354.1 336.3 L278.0 372.3 L195.7 371.7 L136.3 287.8 L149.5 210.7 L213.1 135.2 L318.8 159.2 Z" fill="url(#rim_green_crystal)" opacity="0.38"/>
  </g>
  <rect x="24" y="24" width="464" height="464" filter="url(#grain_green_crystal)"/>
</svg>