<?xml version="1.0" encoding="UTF-8"?>
<svg width="512" height="512" viewBox="0 0 512 512" xmlns="http://www.w3.org/2000/svg" role="img" aria-label="herb_material material icon">
  <defs>
    
    <filter id="drop_herb_material" x="-30%" y="-30%" width="160%" height="170%">
      <feDropShadow dx="0" dy="20" stdDeviation="14" flood-color="#000000" flood-opacity="0.42"/>
    </filter>
    <filter id="grain_herb_material" x="-20%" y="-20%" width="140%" height="140%">
      <feTurbulence type="fractalNoise" baseFrequency="0.8" numOctaves="3" seed="107" result="noise"/>
      <feColorMatrix type="saturate" values="0"/>
      <feComponentTransfer>
        <feFuncA type="table" tableValues="0 0.11"/>
      </feComponentTransfer>
    </filter>
    <filter id="surface_herb_material" x="-20%" y="-20%" width="140%" height="140%">
      <feTurbulence type="fractalNoise" baseFrequency="0.028" numOctaves="2" seed="124" result="surfaceNoise"/>
      <feDisplacementMap in="SourceGraphic" in2="surfaceNoise" scale="8" xChannelSelector="R" yChannelSelector="G"/>
    </filter>
    <radialGradient id="rim_herb_material" cx="0.35" cy="0.2" r="0.9">
      <stop offset="0%" stop-color="#ffffff" stop-opacity="0.4"/>
      <stop offset="70%" stop-color="#ffffff" stop-opacity="0.06"/>
      <stop offset="100%" stop-color="#000000" stop-opacity="0.22"/>
    </radialGradient>
    
    <linearGradient id="leafA_herb_material" x1="0" y1="0" x2="1" y2="1">
      <stop offset="0%" stop-color="#8abf76"/>
      <stop offset="100%" stop-color="#4f8f54"/>
    </linearGradient>
    <linearGradient id="leafB_herb_material" x1="1" y1="0" x2="0" y2="1">
      <stop offset="0%" stop-color="#8abf76"/>
      <stop offset="100%" stop-color="#2f6340"/>
    </linearGradient>
    <linearGradient id="leafC_herb_material" x1="0" y1="0" x2="0" y2="1">
      <stop offset="0%" stop-color="#4f8f54"/>
      <stop offset="100%" stop-color="#2f6340"/>
    </linearGradient>
    <linearGradient id="stem_herb_material" x1="0" y1="0" x2="0" y2="1">
      <stop offset="0%" stop-color="#7f5b3d"/>
      <stop offset="100%" stop-color="#3e2717"/>
    </linearGradient>
  </defs>
  <ellipse cx="256" cy="458" rx="146" ry="28" fill="#000000" opacity="0.28"/>
  
  <g filter="url(#drop_herb_material)">
    <path d="M256 456C258 412 262 362 270 318" stroke="url(#stem_herb_material)" stroke-width="16" stroke-linecap="round"/>
    <ellipse cx="206.0" cy="244.0" rx="62.0" ry="144.0" transform="rotate(-22.6 206.0 244.0)" fill="url(#leafA_herb_material)" stroke="#102915" stroke-opacity="0.55" stroke-width="6"/><path d="M206.0 126.0 Q206.2 244.0 217.4 364.0" stroke="#d8ffd9" stroke-opacity="0.34" stroke-width="5" fill="none"/><path d="M206.0 221.0 Q224.4 230.5 242.9 239.9" stroke="#d9ffd6" stroke-opacity="0.22" stroke-width="4" fill="none"/><path d="M206.0 189.0 Q227.0 178.0 248.1 167.1" stroke="#d9ffd6" stroke-opacity="0.22" stroke-width="4" fill="none"/><path d="M206.0 260.3 Q235.3 260.5 264.5 260.6" stroke="#d9ffd6" stroke-opacity="0.22" stroke-width="4" fill="none"/><path d="M206.0 173.3 Q226.4 161.6 246.9 149.9" stroke="#d9ffd6" stroke-opacity="0.22" stroke-width="4" fill="none"/><ellipse cx="298.0" cy="238.0" rx="66.0" ry="148.0" transform="rotate(23.0 298.0 238.0)" fill="url(#leafB_herb_material)" stroke="#102915" stroke-opacity="0.55" stroke-width="6"/><path d="M298.0 116.0 Q304.7 238.0 290.5 362.0" stroke="#d8ffd9" stroke-opacity="0.34" stroke-width="5" fill="none"/><path d="M298.0 213.3 Q276.7 221.2 255.4 229.1" stroke="#d9ffd6" stroke-opacity="0.22" stroke-width="4" fill="none"/><path d="M298.0 182.3 Q273.1 183.4 248.2 184.5" stroke="#d9ffd6" stroke-opacity="0.22" stroke-width="4" fill="none"/><path d="M298.0 171.9 Q278.7 168.3 259.3 164.8" stroke="#d9ffd6" stroke-opacity="0.22" stroke-width="4" fill="none"/><path d="M298.0 314.9 Q269.9 315.9 241.7 316.9" stroke="#d9ffd6" stroke-opacity="0.22" stroke-width="4" fill="none"/><ellipse cx="256.0" cy="286.0" rx="74.0" ry="134.0" transform="rotate(3.2 256.0 286.0)" fill="url(#leafC_herb_material)" stroke="#102915" stroke-opacity="0.55" stroke-width="6"/><path d="M256.0 178.0 Q266.8 286.0 265.5 396.0" stroke="#d8ffd9" stroke-opacity="0.34" stroke-width="5" fill="none"/><path d="M256.0 275.6 Q285.6 264.9 315.2 254.3" stroke="#d9ffd6" stroke-opacity="0.22" stroke-width="4" fill="none"/><path d="M256.0 339.3 Q285.5 327.3 314.9 315.4" stroke="#d9ffd6" stroke-opacity="0.22" stroke-width="4" fill="none"/><path d="M256.0 328.4 Q273.1 328.4 290.1 328.3" stroke="#d9ffd6" stroke-opacity="0.22" stroke-width="4" fill="none"/><path d="M256.0 245.3 Q280.7 256.5 305.5 267.7" stroke="#d9ffd6" stroke-opacity="0.22" stroke-width="4" fill="none"/>
    <path d="M188 410C234 400 278 398 326 408" stroke="#0f2812" stroke-opacity="0.32" stroke-width="8" stroke-linecap="round"/>
  </g>
  <rect x="24" y="24" width="464" height="464" filter="url(#grain_herb_material)"/>
</svg>