<?xml version="1.0" encoding="UTF-8"?>
<svg width="512" height="512" viewBox="0 0 512 512" xmlns="http://www.w3.org/2000/svg" role="img" aria-label="herb material icon">
  <defs>
    
    <filter id="drop_herb" x="-30%" y="-30%" width="160%" height="170%">
      <feDropShadow dx="0" dy="20" stdDeviation="14" flood-color="#000000" flood-opacity="0.42"/>
    </filter>
    <filter id="grain_herb" x="-20%" y="-20%" width="140%" height="140%">
      <feTurbulence type="fractalNoise" baseFrequency="0.8" numOctaves="3" seed="101" result="noise"/>
      <feColorMatrix type="saturate" values="0"/>
      <feComponentTransfer>
        <feFuncA type="table" tableValues="0 0.11"/>
      </feComponentTransfer>
    </filter>
    <filter id="surface_herb" x="-20%" y="-20%" width="140%" height="140%">
      <feTurbulence type="fractalNoise" baseFrequency="0.028" numOctaves="2" seed="118" result="surfaceNoise"/>
      <feDisplacementMap in="SourceGraphic" in2="surfaceNoise" scale="8" xChannelSelector="R" yChannelSelector="G"/>
    </filter>
    <radialGradient id="rim_herb" cx="0.35" cy="0.2" r="0.9">
      <stop offset="0%" stop-color="#ffffff" stop-opacity="0.4"/>
      <stop offset="70%" stop-color="#ffffff" stop-opacity="0.06"/>
      <stop offset="100%" stop-color="#000000" stop-opacity="0.22"/>
    </radialGradient>
    
    <linearGradient id="leafA_herb" x1="0" y1="0" x2="1" y2="1">
      <stop offset="0%" stop-color="#91c66e"/>
      <stop offset="100%" stop-color="#4f8f42"/>
    </linearGradient>
    <linearGradient id="leafB_herb" x1="1" y1="0" x2="0" y2="1">
      <stop offset="0%" stop-color="#91c66e"/>
      <stop offset="100%" stop-color="#2e5d31"/>
    </linearGradient>
    <linearGradient id="leafC_herb" x1="0" y1="0" x2="0" y2="1">
      <stop offset="0%" stop-color="#4f8f42"/>
      <stop offset="100%" stop-color="#2e5d31"/>
    </linearGradient>
    <linearGradient id="stem_herb" x1="0" y1="0" x2="0" y2="1">
      <stop offset="0%" stop-color="#7f5b3d"/>
      <stop offset="100%" stop-color="#3e2717"/>
    </linearGradient>
  </defs>
  <ellipse cx="256" cy="458" rx="146" ry="28" fill="#000000" opacity="0.28"/>
  
  <g filter="url(#drop_herb)">
    <path d="M256 456C258 412 262 362 270 318" stroke="url(#stem_herb)" stroke-width="16" stroke-linecap="round"/>
    <ellipse cx="206.0" cy="244.0" rx="62.0" ry="144.0" transform="rotate(-32.4 206.0 244.0)" fill="url(#leafA_herb)" stroke="#102915" stroke-opacity="0.55" stroke-width="6"/><path d="M206.0 126.0 Q210.6 244.0 203.2 364.0" stroke="#d8ffd9" stroke-opacity="0.34" stroke-width="5" fill="none"/><path d="M206.0 281.9 Q230.8 293.0 255.6 304.1" stroke="#d9ffd6" stroke-opacity="0.22" stroke-width="4" fill="none"/><path d="M206.0 202.9 Q223.2 200.1 240.3 197.4" stroke="#d9ffd6" stroke-opacity="0.22" stroke-width="4" fill="none"/><path d="M206.0 299.0 Q227.9 308.0 249.7 317.0" stroke="#d9ffd6" stroke-opacity="0.22" stroke-width="4" fill="none"/><path d="M206.0 244.9 Q223.6 234.4 241.3 223.8" stroke="#d9ffd6" stroke-opacity="0.22" stroke-width="4" fill="none"/><ellipse cx="298.0" cy="238.0" rx="66.0" ry="148.0" transform="rotate(28.7 298.0 238.0)" fill="url(#leafB_herb)" stroke="#102915" stroke-opacity="0.55" stroke-width="6"/><path d="M298.0 116.0 Q295.4 238.0 286.7 362.0" stroke="#d8ffd9" stroke-opacity="0.34" stroke-width="5" fill="none"/><path d="M298.0 191.2 Q270.6 185.8 243.2 180.3" stroke="#d9ffd6" stroke-opacity="0.22" stroke-width="4" fill="none"/><path d="M298.0 167.6 Q272.3 156.6 246.6 145.7" stroke="#d9ffd6" stroke-opacity="0.22" stroke-width="4" fill="none"/><path d="M298.0 258.4 Q281.2 256.8 264.4 255.3" stroke="#d9ffd6" stroke-opacity="0.22" stroke-width="4" fill="none"/><path d="M298.0 304.2 Q275.5 310.1 252.9 316.0" stroke="#d9ffd6" stroke-opacity="0.22" stroke-width="4" fill="none"/><ellipse cx="256.0" cy="286.0" rx="74.0" ry="134.0" transform="rotate(0.6 256.0 286.0)" fill="url(#leafC_herb)" stroke="#102915" stroke-opacity="0.55" stroke-width="6"/><path d="M256.0 178.0 Q269.5 286.0 259.1 396.0" stroke="#d8ffd9" stroke-opacity="0.34" stroke-width="5" fill="none"/><path d="M256.0 217.6 Q274.4 209.1 292.8 200.6" stroke="#d9ffd6" stroke-opacity="0.22" stroke-width="4" fill="none"/><path d="M256.0 293.7 Q272.0 297.1 288.0 300.5" stroke="#d9ffd6" stroke-opacity="0.22" stroke-width="4" fill="none"/><path d="M256.0 226.8 Q274.6 215.8 293.2 204.8" stroke="#d9ffd6" stroke-opacity="0.22" stroke-width="4" fill="none"/><path d="M256.0 368.9 Q278.5 360.4 301.0 351.9" stroke="#d9ffd6" stroke-opacity="0.22" stroke-width="4" fill="none"/>
    <path d="M188 410C234 400 278 398 326 408" stroke="#0f2812" stroke-opacity="0.32" stroke-width="8" stroke-linecap="round"/>
  </g>
  <rect x="24" y="24" width="464" height="464" filter="url(#grain_herb)"/>
</svg>