<?xml version="1.0" encoding="UTF-8"?>
<svg width="512" height="512" viewBox="0 0 512 512" xmlns="http://www.w3.org/2000/svg" role="img" aria-label="mana_stone material icon">
  <defs>
    
    <filter id="drop_mana_stone" x="-30%" y="-30%" width="160%" height="170%">
      <feDropShadow dx="0" dy="20" stdDeviation="14" flood-color="#000000" flood-opacity="0.42"/>
    </filter>
    <filter id="grain_mana_stone" x="-20%" y="-20%" width="140%" height="140%">
      <feTurbulence type="fractalNoise" baseFrequency="0.8" numOctaves="3" seed="217" result="noise"/>
      <feColorMatrix type="saturate" values="0"/>
      <feComponentTransfer>
        <feFuncA type="table" tableValues="0 0.11"/>
      </feComponentTransfer>
    </filter>
    <filter id="surface_mana_stone" x="-20%" y="-20%" width="140%" height="140%">
      <feTurbulence type="fractalNoise" baseFrequency="0.028" numOctaves="2" seed="234" result="surfaceNoise"/>
      <feDisplacementMap in="SourceGraphic" in2="surfaceNoise" scale="8" xChannelSelector="R" yChannelSelector="G"/>
    </filter>
    <radialGradient id="rim_mana_stone" cx="0.35" cy="0.2" r="0.9">
      <stop offset="0%" stop-color="#ffffff" stop-opacity="0.4"/>
      <stop offset="70%" stop-color="#ffffff" stop-opacity="0.06"/>
      <stop offset="100%" stop-color="#000000" stop-opacity="0.22"/>
    </radialGradient>
    
    <linearGradient id="base_mana_stone" x1="0" y1="0" x2="1" y2="1">
      <stop offset="0%" stop-color="#77d9ff"/>
      <stop offset="45%" stop-color="#4674e0"/>
      <stop offset="100%" stop-color="#1f2d7a"/>
    </linearGradient>
    <radialGradient id="glow_mana_stone" cx="0.4" cy="0.28" r="0.8">
      <stop offset="0%" stop-color="#c9f5ff" stop-opacity="0.42"/>
      <stop offset="100%" stop-color="#ffffff" stop-opacity="0"/>
    </radialGradient>
  </defs>
  <ellipse cx="256" cy="458" rx="146" ry="28" fill="#000000" opacity="0.28"/>
  
  <g filter="url(#drop_mana_stone)">
    <path d="M432.2 253.3 L376.0 385.9 L267.1 411.6 L151.6 362.8 L103.2 257.9 L141.0 139.7 L264.5 82.9 L375.8 136.0 Z" fill="url(#base_mana_stone)" stroke="#0f1320" stroke-opacity="0.65" stroke-width="8"/>
    <path d="M432.2 253.3 L376.0 385.9 L267.1 411.6 L151.6 362.8 L103.2 257.9 L141.0 139.7 L264.5 82.9 L375.8 136.0 Z" fill="url(#glow_mana_stone)"/>
    <path d="M261.9 275.4 L432.2 253.3 L406.4 329.8 Z" fill="#ffffff" opacity="0.352"/><path d="M261.9 275.4 L406.4 329.8 L376.0 385.9 Z" fill="#000000" opacity="0.144"/><path d="M261.9 275.4 L376.0 385.9 L324.1 395.4 Z" fill="#ffffff" opacity="0.370"/><path d="M261.9 275.4 L324.1 395.4 L267.1 411.6 Z" fill="#000000" opacity="0.176"/><path d="M261.9 275.4 L267.1 411.6 L202.9 395.9 Z" fill="#ffffff" opacity="0.369"/><path d="M261.9 275.4 L202.9 395.9 L151.6 362.8 Z" fill="#000000" opacity="0.143"/><path d="M261.9 275.4 L151.6 362.8 L136.9 303.8 Z" fill="#ffffff" opacity="0.348"/><path d="M261.9 275.4 L136.9 303.8 L103.2 257.9 Z" fill="#000000" opacity="0.170"/><path d="M261.9 275.4 L103.2 257.9 L113.2 201.5 Z" fill="#ffffff" opacity="0.284"/><path d="M261.9 275.4 L113.2 201.5 L141.0 139.7 Z" fill="#000000" opacity="0.091"/><path d="M261.9 275.4 L141.0 139.7 L205.0 102.2 Z" fill="#ffffff" opacity="0.234"/><path d="M261.9 275.4 L205.0 102.2 L264.5 82.9 Z" fill="#000000" opacity="0.168"/><path d="M261.9 275.4 L264.5 82.9 L319.7 118.4 Z" fill="#ffffff" opacity="0.215"/><path d="M261.9 275.4 L319.7 118.4 L375.8 136.0 Z" fill="#000000" opacity="0.127"/><path d="M261.9 275.4 L375.8 136.0 L403.0 187.8 Z" fill="#ffffff" opacity="0.312"/><path d="M261.9 275.4 L403.0 187.8 L432.2 253.3 Z" fill="#000000" opacity="0.191"/>
    <circle cx="321.2" cy="173.5" r="9.6" fill="#ffffff" opacity="0.422"/><circle cx="214.8" cy="253.2" r="5.9" fill="#ffffff" opacity="0.287"/><circle cx="182.0" cy="222.3" r="8.2" fill="#ffffff" opacity="0.213"/><circle cx="270.6" cy="262.9" r="7.5" fill="#ffffff" opacity="0.306"/><circle cx="337.3" cy="154.5" r="6.4" fill="#ffffff" opacity="0.334"/><circle cx="343.4" cy="144.0" r="7.7" fill="#ffffff" opacity="0.338"/><circle cx="241.7" cy="211.9" r="4.7" fill="#ffffff" opacity="0.404"/>
    <path d="M383.1 259.9 L348.1 348.0 L269.0 364.6 L180.6 335.0 L138.3 253.4 L171.0 167.2 L261.1 123.9 L344.4 169.7 Z" fill="url(#rim_mana_stone)" opacity="0.38"/>
  </g>
  <rect x="24" y="24" width="464" height="464" filter="url(#grain_mana_stone)"/>
</svg>