<?xml version="1.0" encoding="UTF-8"?>
<svg width="512" height="512" viewBox="0 0 512 512" xmlns="http://www.w3.org/2000/svg" role="img" aria-label="metal_piece material icon">
  <defs>
    
    <filter id="drop_metal_piece" x="-30%" y="-30%" width="160%" height="170%">
      <feDropShadow dx="0" dy="20" stdDeviation="14" flood-color="#000000" flood-opacity="0.42"/>
    </filter>
    <filter id="grain_metal_piece" x="-20%" y="-20%" width="140%" height="140%">
      <feTurbulence type="fractalNoise" baseFrequency="0.8" numOctaves="3" seed="141" result="noise"/>
      <feColorMatrix type="saturate" values="0"/>
      <feComponentTransfer>
        <feFuncA type="table" tableValues="0 0.11"/>
      </feComponentTransfer>
    </filter>
    <filter id="surface_metal_piece" x="-20%" y="-20%" width="140%" height="140%">
      <feTurbulence type="fractalNoise" baseFrequency="0.028" numOctaves="2" seed="158" result="surfaceNoise"/>
      <feDisplacementMap in="SourceGraphic" in2="surfaceNoise" scale="8" xChannelSelector="R" yChannelSelector="G"/>
    </filter>
    <radialGradient id="rim_metal_piece" cx="0.35" cy="0.2" r="0.9">
      <stop offset="0%" stop-color="#ffffff" stop-opacity="0.4"/>
      <stop offset="70%" stop-color="#ffffff" stop-opacity="0.06"/>
      <stop offset="100%" stop-color="#000000" stop-opacity="0.22"/>
    </radialGradient>
    
    <linearGradient id="base_metal_piece" x1="0" y1="0" x2="1" y2="1">
      <stop offset="0%" stop-color="#c4ccd6"/>
      <stop offset="55%" stop-color="#7f8b9a"/>
      <stop offset="100%" stop-color="#4b5562"/>
    </linearGradient>
    <linearGradient id="inner_metal_piece" x1="0" y1="0" x2="1" y2="1">
      <stop offset="0%" stop-color="#ffffff" stop-opacity="0.34"/>
      <stop offset="100%" stop-color="#ffffff" stop-opacity="0.05"/>
    </linearGradient>
  </defs>
  <ellipse cx="256" cy="458" rx="146" ry="28" fill="#000000" opacity="0.28"/>
  
  <g filter="url(#drop_metal_piece)">
    <path d="M435.5 242.5 L410.1 318.5 L358.4 413.4 L274.2 439.9 L219.7 413.8 L153.7 363.3 L137.7 302.5 L138.3 213.6 L172.4 182.0 L216.5 143.5 L314.3 124.7 L389.5 174.9 Z" fill="url(#base_metal_piece)" stroke="#121212" stroke-opacity="0.55" stroke-width="8"/>
    <path d="M383.5 255.2 L369.4 300.8 L321.0 377.6 L264.7 382.3 L226.9 370.6 L177.9 337.2 L178.1 288.3 L167.0 222.2 L187.9 195.0 L231.5 181.2 L291.8 169.5 L351.6 197.2 Z" fill="url(#inner_metal_piece)"/>
    <path d="M383.5 255.2 L369.4 300.8 L321.0 377.6 L264.7 382.3 L226.9 370.6 L177.9 337.2 L178.1 288.3 L167.0 222.2 L187.9 195.0 L231.5 181.2 L291.8 169.5 L351.6 197.2 Z" fill="url(#rim_metal_piece)" opacity="0.45"/>
    <path d="M240.9 245.3 L435.5 242.5 L410.1 318.5 Z" fill="#ffffff" opacity="0.171"/><path d="M246.8 256.0 L410.1 318.5 L358.4 413.4 Z" fill="#ffffff" opacity="0.120"/><path d="M268.7 250.4 L358.4 413.4 L274.2 439.9 Z" fill="#ffffff" opacity="0.110"/><path d="M238.3 246.0 L274.2 439.9 L219.7 413.8 Z" fill="#ffffff" opacity="0.084"/><path d="M265.3 267.8 L219.7 413.8 L153.7 363.3 Z" fill="#ffffff" opacity="0.108"/><path d="M251.3 241.0 L153.7 363.3 L137.7 302.5 Z" fill="#ffffff" opacity="0.197"/><path d="M272.3 245.9 L137.7 302.5 L138.3 213.6 Z" fill="#ffffff" opacity="0.111"/><path d="M272.4 262.6 L138.3 213.6 L172.4 182.0 Z" fill="#ffffff" opacity="0.119"/><path d="M257.6 243.1 L172.4 182.0 L216.5 143.5 Z" fill="#ffffff" opacity="0.135"/><path d="M241.2 262.0 L216.5 143.5 L314.3 124.7 Z" fill="#ffffff" opacity="0.167"/><path d="M250.0 249.4 L314.3 124.7 L389.5 174.9 Z" fill="#ffffff" opacity="0.171"/><path d="M264.5 241.4 L389.5 174.9 L435.5 242.5 Z" fill="#ffffff" opacity="0.177"/>
    <path d="M389.5 174.9 Q291.8 218.7 178.1 288.3" stroke="#0a0a0a" stroke-opacity="0.28" stroke-width="6" stroke-linecap="round" fill="none"/><path d="M314.3 124.7 Q300.3 265.6 264.7 382.3" stroke="#0a0a0a" stroke-opacity="0.28" stroke-width="6" stroke-linecap="round" fill="none"/><path d="M219.7 413.8 Q238.1 277.0 291.8 169.5" stroke="#0a0a0a" stroke-opacity="0.28" stroke-width="6" stroke-linecap="round" fill="none"/><path d="M358.4 413.4 Q367.0 307.3 351.6 197.2" stroke="#0a0a0a" stroke-opacity="0.28" stroke-width="6" stroke-linecap="round" fill="none"/><path d="M410.1 318.5 Q303.8 338.5 226.9 370.6" stroke="#0a0a0a" stroke-opacity="0.28" stroke-width="6" stroke-linecap="round" fill="none"/>
    <circle cx="224.3" cy="308.0" r="5.0" fill="#d7e5f6" opacity="0.361"/><circle cx="264.5" cy="158.0" r="9.3" fill="#d7e5f6" opacity="0.356"/><circle cx="266.9" cy="218.8" r="8.6" fill="#d7e5f6" opacity="0.231"/><circle cx="326.5" cy="155.1" r="9.9" fill="#d7e5f6" opacity="0.265"/><circle cx="219.7" cy="239.0" r="5.2" fill="#d7e5f6" opacity="0.198"/><circle cx="175.6" cy="258.8" r="6.2" fill="#d7e5f6" opacity="0.242"/><circle cx="365.5" cy="234.5" r="5.5" fill="#d7e5f6" opacity="0.171"/><circle cx="184.3" cy="191.8" r="8.1" fill="#d7e5f6" opacity="0.297"/><circle cx="311.4" cy="227.9" r="9.1" fill="#d7e5f6" opacity="0.227"/><circle cx="254.7" cy="311.4" r="5.3" fill="#d7e5f6" opacity="0.348"/><circle cx="267.7" cy="278.3" r="9.5" fill="#d7e5f6" opacity="0.293"/><circle cx="257.8" cy="312.5" r="4.1" fill="#d7e5f6" opacity="0.200"/><circle cx="224.4" cy="354.8" r="8.7" fill="#d7e5f6" opacity="0.416"/><circle cx="249.7" cy="292.2" r="9.7" fill="#d7e5f6" opacity="0.279"/><circle cx="206.4" cy="265.3" r="9.7" fill="#d7e5f6" opacity="0.402"/><circle cx="318.4" cy="130.5" r="8.2" fill="#d7e5f6" opacity="0.398"/><circle cx="257.2" cy="255.5" r="4.5" fill="#d7e5f6" opacity="0.344"/><circle cx="288.1" cy="309.0" r="6.1" fill="#d7e5f6" opacity="0.327"/>
  </g>
  <rect x="24" y="24" width="464" height="464" filter="url(#grain_metal_piece)"/>
</svg>