<?xml version="1.0" encoding="UTF-8"?>
<svg width="512" height="512" viewBox="0 0 512 512" xmlns="http://www.w3.org/2000/svg" role="img" aria-label="mithril_ore material icon">
  <defs>
    
    <filter id="drop_mithril_ore" x="-30%" y="-30%" width="160%" height="170%">
      <feDropShadow dx="0" dy="20" stdDeviation="14" flood-color="#000000" flood-opacity="0.42"/>
    </filter>
    <filter id="grain_mithril_ore" x="-20%" y="-20%" width="140%" height="140%">
      <feTurbulence type="fractalNoise" baseFrequency="0.8" numOctaves="3" seed="213" result="noise"/>
      <feColorMatrix type="saturate" values="0"/>
      <feComponentTransfer>
        <feFuncA type="table" tableValues="0 0.11"/>
      </feComponentTransfer>
    </filter>
    <filter id="surface_mithril_ore" x="-20%" y="-20%" width="140%" height="140%">
      <feTurbulence type="fractalNoise" baseFrequency="0.028" numOctaves="2" seed="230" result="surfaceNoise"/>
      <feDisplacementMap in="SourceGraphic" in2="surfaceNoise" scale="8" xChannelSelector="R" yChannelSelector="G"/>
    </filter>
    <radialGradient id="rim_mithril_ore" cx="0.35" cy="0.2" r="0.9">
      <stop offset="0%" stop-color="#ffffff" stop-opacity="0.4"/>
      <stop offset="70%" stop-color="#ffffff" stop-opacity="0.06"/>
      <stop offset="100%" stop-color="#000000" stop-opacity="0.22"/>
    </radialGradient>
    
    <linearGradient id="base_mithril_ore" x1="0" y1="0" x2="1" y2="1">
      <stop offset="0%" stop-color="#89ecff"/>
      <stop offset="55%" stop-color="#43a9c2"/>
      <stop offset="100%" stop-color="#1f6176"/>
    </linearGradient>
    <linearGradient id="inner_mithril_ore" x1="0" y1="0" x2="1" y2="1">
      <stop offset="0%" stop-color="#ffffff" stop-opacity="0.34"/>
      <stop offset="100%" stop-color="#ffffff" stop-opacity="0.05"/>
    </linearGradient>
  </defs>
  <ellipse cx="256" cy="458" rx="146" ry="28" fill="#000000" opacity="0.28"/>
  
  <g filter="url(#drop_mithril_ore)">
    <path d="M383.9 266.0 L388.8 331.1 L333.9 413.3 L274.8 413.1 L179.8 387.7 L122.7 342.0 L86.2 258.2 L101.1 203.1 L171.8 160.8 L240.7 70.6 L340.3 113.5 L405.5 170.4 Z" fill="url(#base_mithril_ore)" stroke="#121212" stroke-opacity="0.55" stroke-width="8"/>
    <path d="M342.0 257.6 L351.7 317.2 L320.1 376.0 L273.7 374.4 L199.1 345.6 L157.2 313.5 L141.5 254.6 L152.2 209.3 L189.8 182.6 L236.8 122.0 L312.8 152.3 L371.4 187.5 Z" fill="url(#inner_mithril_ore)"/>
    <path d="M342.0 257.6 L351.7 317.2 L320.1 376.0 L273.7 374.4 L199.1 345.6 L157.2 313.5 L141.5 254.6 L152.2 209.3 L189.8 182.6 L236.8 122.0 L312.8 152.3 L371.4 187.5 Z" fill="url(#rim_mithril_ore)" opacity="0.45"/>
    <path d="M251.9 239.6 L383.9 266.0 L388.8 331.1 Z" fill="#ffffff" opacity="0.199"/><path d="M254.4 266.1 L388.8 331.1 L333.9 413.3 Z" fill="#ffffff" opacity="0.146"/><path d="M268.1 251.5 L333.9 413.3 L274.8 413.1 Z" fill="#ffffff" opacity="0.082"/><path d="M255.1 266.4 L274.8 413.1 L179.8 387.7 Z" fill="#ffffff" opacity="0.192"/><path d="M267.3 243.1 L179.8 387.7 L122.7 342.0 Z" fill="#ffffff" opacity="0.125"/><path d="M272.0 261.4 L122.7 342.0 L86.2 258.2 Z" fill="#ffffff" opacity="0.120"/><path d="M250.7 269.4 L86.2 258.2 L101.1 203.1 Z" fill="#ffffff" opacity="0.069"/><path d="M251.0 251.9 L101.1 203.1 L171.8 160.8 Z" fill="#ffffff" opacity="0.134"/><path d="M246.7 247.2 L171.8 160.8 L240.7 70.6 Z" fill="#ffffff" opacity="0.190"/><path d="M264.8 263.9 L240.7 70.6 L340.3 113.5 Z" fill="#ffffff" opacity="0.115"/><path d="M242.4 246.6 L340.3 113.5 L405.5 170.4 Z" fill="#ffffff" opacity="0.129"/><path d="M249.6 272.0 L405.5 170.4 L383.9 266.0 Z" fill="#ffffff" opacity="0.150"/>
    <path d="M340.3 113.5 Q236.0 221.2 157.2 313.5" stroke="#0a0a0a" stroke-opacity="0.28" stroke-width="6" stroke-linecap="round" fill="none"/><path d="M383.9 266.0 Q252.7 224.3 152.2 209.3" stroke="#0a0a0a" stroke-opacity="0.28" stroke-width="6" stroke-linecap="round" fill="none"/><path d="M240.7 70.6 Q205.0 201.7 199.1 345.6" stroke="#0a0a0a" stroke-opacity="0.28" stroke-width="6" stroke-linecap="round" fill="none"/><path d="M383.9 266.0 Q393.1 243.4 371.4 187.5" stroke="#0a0a0a" stroke-opacity="0.28" stroke-width="6" stroke-linecap="round" fill="none"/><path d="M274.8 413.1 Q289.4 400.8 273.7 374.4" stroke="#0a0a0a" stroke-opacity="0.28" stroke-width="6" stroke-linecap="round" fill="none"/>
    <circle cx="309.0" cy="268.2" r="7.0" fill="#c7fbff" opacity="0.164"/><circle cx="235.6" cy="271.0" r="9.1" fill="#c7fbff" opacity="0.420"/><circle cx="346.4" cy="258.7" r="8.8" fill="#c7fbff" opacity="0.385"/><circle cx="189.4" cy="149.5" r="9.3" fill="#c7fbff" opacity="0.450"/><circle cx="228.2" cy="226.4" r="4.1" fill="#c7fbff" opacity="0.168"/><circle cx="185.8" cy="365.5" r="4.5" fill="#c7fbff" opacity="0.283"/><circle cx="244.4" cy="291.9" r="6.9" fill="#c7fbff" opacity="0.337"/><circle cx="287.0" cy="309.8" r="4.5" fill="#c7fbff" opacity="0.295"/><circle cx="289.6" cy="302.7" r="5.0" fill="#c7fbff" opacity="0.373"/><circle cx="306.9" cy="233.9" r="8.1" fill="#c7fbff" opacity="0.363"/><circle cx="348.2" cy="219.2" r="6.9" fill="#c7fbff" opacity="0.168"/><circle cx="208.0" cy="271.5" r="9.9" fill="#c7fbff" opacity="0.352"/><circle cx="330.8" cy="331.8" r="8.3" fill="#c7fbff" opacity="0.302"/><circle cx="186.0" cy="366.4" r="9.2" fill="#c7fbff" opacity="0.314"/><circle cx="197.4" cy="238.4" r="9.9" fill="#c7fbff" opacity="0.251"/><circle cx="234.1" cy="330.8" r="7.5" fill="#c7fbff" opacity="0.255"/><circle cx="286.5" cy="139.8" r="5.0" fill="#c7fbff" opacity="0.177"/><circle cx="371.5" cy="139.1" r="9.9" fill="#c7fbff" opacity="0.172"/>
  </g>
  <rect x="24" y="24" width="464" height="464" filter="url(#grain_mithril_ore)"/>
</svg>