<?xml version="1.0" encoding="UTF-8"?>
<svg width="512" height="512" viewBox="0 0 512 512" xmlns="http://www.w3.org/2000/svg" role="img" aria-label="obsidian material icon">
  <defs>
    
    <filter id="drop_obsidian" x="-30%" y="-30%" width="160%" height="170%">
      <feDropShadow dx="0" dy="20" stdDeviation="14" flood-color="#000000" flood-opacity="0.42"/>
    </filter>
    <filter id="grain_obsidian" x="-20%" y="-20%" width="140%" height="140%">
      <feTurbulence type="fractalNoise" baseFrequency="0.8" numOctaves="3" seed="219" result="noise"/>
      <feColorMatrix type="saturate" values="0"/>
      <feComponentTransfer>
        <feFuncA type="table" tableValues="0 0.11"/>
      </feComponentTransfer>
    </filter>
    <filter id="surface_obsidian" x="-20%" y="-20%" width="140%" height="140%">
      <feTurbulence type="fractalNoise" baseFrequency="0.028" numOctaves="2" seed="236" result="surfaceNoise"/>
      <feDisplacementMap in="SourceGraphic" in2="surfaceNoise" scale="8" xChannelSelector="R" yChannelSelector="G"/>
    </filter>
    <radialGradient id="rim_obsidian" cx="0.35" cy="0.2" r="0.9">
      <stop offset="0%" stop-color="#ffffff" stop-opacity="0.4"/>
      <stop offset="70%" stop-color="#ffffff" stop-opacity="0.06"/>
      <stop offset="100%" stop-color="#000000" stop-opacity="0.22"/>
    </radialGradient>
    
    <linearGradient id="base_obsidian" x1="0" y1="0" x2="1" y2="1">
      <stop offset="0%" stop-color="#56556a"/>
      <stop offset="55%" stop-color="#2f2f3c"/>
      <stop offset="100%" stop-color="#12131b"/>
    </linearGradient>
    <linearGradient id="inner_obsidian" x1="0" y1="0" x2="1" y2="1">
      <stop offset="0%" stop-color="#ffffff" stop-opacity="0.34"/>
      <stop offset="100%" stop-color="#ffffff" stop-opacity="0.05"/>
    </linearGradient>
  </defs>
  <ellipse cx="256" cy="458" rx="146" ry="28" fill="#000000" opacity="0.28"/>
  
  <g filter="url(#drop_obsidian)">
    <path d="M382.0 242.2 L383.3 308.1 L332.7 374.4 L290.7 436.5 L163.8 447.1 L160.9 363.4 L71.7 316.2 L105.3 202.9 L142.6 106.8 L223.3 99.6 L318.5 101.6 L377.3 165.3 Z" fill="url(#base_obsidian)" stroke="#121212" stroke-opacity="0.55" stroke-width="8"/>
    <path d="M341.5 247.9 L341.7 288.9 L306.2 337.3 L286.8 388.3 L189.3 394.8 L193.9 332.8 L116.3 303.3 L145.3 225.6 L177.1 156.9 L236.4 143.7 L301.9 145.9 L342.0 186.7 Z" fill="url(#inner_obsidian)"/>
    <path d="M341.5 247.9 L341.7 288.9 L306.2 337.3 L286.8 388.3 L189.3 394.8 L193.9 332.8 L116.3 303.3 L145.3 225.6 L177.1 156.9 L236.4 143.7 L301.9 145.9 L342.0 186.7 Z" fill="url(#rim_obsidian)" opacity="0.45"/>
    <path d="M243.0 244.9 L382.0 242.2 L383.3 308.1 Z" fill="#ffffff" opacity="0.193"/><path d="M255.5 258.0 L383.3 308.1 L332.7 374.4 Z" fill="#ffffff" opacity="0.128"/><path d="M263.9 255.4 L332.7 374.4 L290.7 436.5 Z" fill="#ffffff" opacity="0.115"/><path d="M267.8 265.0 L290.7 436.5 L163.8 447.1 Z" fill="#ffffff" opacity="0.134"/><path d="M248.1 263.1 L163.8 447.1 L160.9 363.4 Z" fill="#ffffff" opacity="0.183"/><path d="M248.1 244.6 L160.9 363.4 L71.7 316.2 Z" fill="#ffffff" opacity="0.166"/><path d="M248.5 263.6 L71.7 316.2 L105.3 202.9 Z" fill="#ffffff" opacity="0.069"/><path d="M267.5 263.3 L105.3 202.9 L142.6 106.8 Z" fill="#ffffff" opacity="0.124"/><path d="M239.0 245.0 L142.6 106.8 L223.3 99.6 Z" fill="#ffffff" opacity="0.076"/><path d="M249.5 261.7 L223.3 99.6 L318.5 101.6 Z" fill="#ffffff" opacity="0.135"/><path d="M250.7 259.6 L318.5 101.6 L377.3 165.3 Z" fill="#ffffff" opacity="0.144"/><path d="M255.9 239.5 L377.3 165.3 L382.0 242.2 Z" fill="#ffffff" opacity="0.061"/>
    <path d="M223.3 99.6 Q271.5 240.6 286.8 388.3" stroke="#0a0a0a" stroke-opacity="0.28" stroke-width="6" stroke-linecap="round" fill="none"/><path d="M332.7 374.4 Q278.4 362.9 193.9 332.8" stroke="#0a0a0a" stroke-opacity="0.28" stroke-width="6" stroke-linecap="round" fill="none"/><path d="M71.7 316.2 Q82.0 307.2 116.3 303.3" stroke="#0a0a0a" stroke-opacity="0.28" stroke-width="6" stroke-linecap="round" fill="none"/><path d="M332.7 374.4 Q342.3 301.2 341.5 247.9" stroke="#0a0a0a" stroke-opacity="0.28" stroke-width="6" stroke-linecap="round" fill="none"/><path d="M105.3 202.9 Q132.3 276.9 193.9 332.8" stroke="#0a0a0a" stroke-opacity="0.28" stroke-width="6" stroke-linecap="round" fill="none"/>
    <circle cx="349.2" cy="242.8" r="6.9" fill="#b8b6d1" opacity="0.355"/><circle cx="313.6" cy="146.5" r="7.8" fill="#b8b6d1" opacity="0.396"/><circle cx="318.6" cy="187.2" r="4.8" fill="#b8b6d1" opacity="0.379"/><circle cx="249.7" cy="192.0" r="7.1" fill="#b8b6d1" opacity="0.223"/><circle cx="306.5" cy="146.2" r="6.2" fill="#b8b6d1" opacity="0.203"/><circle cx="193.8" cy="192.2" r="9.9" fill="#b8b6d1" opacity="0.339"/><circle cx="196.2" cy="192.0" r="9.4" fill="#b8b6d1" opacity="0.365"/><circle cx="250.3" cy="156.1" r="6.3" fill="#b8b6d1" opacity="0.403"/><circle cx="313.4" cy="322.0" r="10.0" fill="#b8b6d1" opacity="0.184"/><circle cx="156.1" cy="346.2" r="6.4" fill="#b8b6d1" opacity="0.415"/><circle cx="316.0" cy="208.1" r="7.2" fill="#b8b6d1" opacity="0.222"/><circle cx="196.8" cy="185.0" r="8.8" fill="#b8b6d1" opacity="0.339"/><circle cx="308.5" cy="254.2" r="7.7" fill="#b8b6d1" opacity="0.407"/><circle cx="160.9" cy="237.7" r="5.9" fill="#b8b6d1" opacity="0.319"/><circle cx="157.8" cy="321.3" r="5.1" fill="#b8b6d1" opacity="0.221"/><circle cx="263.0" cy="351.2" r="6.6" fill="#b8b6d1" opacity="0.172"/><circle cx="209.3" cy="203.5" r="9.1" fill="#b8b6d1" opacity="0.187"/><circle cx="152.9" cy="150.0" r="9.2" fill="#b8b6d1" opacity="0.307"/>
  </g>
  <rect x="24" y="24" width="464" height="464" filter="url(#grain_obsidian)"/>
</svg>