<?xml version="1.0" encoding="UTF-8"?>
<svg width="512" height="512" viewBox="0 0 512 512" xmlns="http://www.w3.org/2000/svg" role="img" aria-label="old_cloth_scrap material icon">
  <defs>
    
    <filter id="drop_old_cloth_scrap" x="-30%" y="-30%" width="160%" height="170%">
      <feDropShadow dx="0" dy="20" stdDeviation="14" flood-color="#000000" flood-opacity="0.42"/>
    </filter>
    <filter id="grain_old_cloth_scrap" x="-20%" y="-20%" width="140%" height="140%">
      <feTurbulence type="fractalNoise" baseFrequency="0.8" numOctaves="3" seed="121" result="noise"/>
      <feColorMatrix type="saturate" values="0"/>
      <feComponentTransfer>
        <feFuncA type="table" tableValues="0 0.11"/>
      </feComponentTransfer>
    </filter>
    <filter id="surface_old_cloth_scrap" x="-20%" y="-20%" width="140%" height="140%">
      <feTurbulence type="fractalNoise" baseFrequency="0.028" numOctaves="2" seed="138" result="surfaceNoise"/>
      <feDisplacementMap in="SourceGraphic" in2="surfaceNoise" scale="8" xChannelSelector="R" yChannelSelector="G"/>
    </filter>
    <radialGradient id="rim_old_cloth_scrap" cx="0.35" cy="0.2" r="0.9">
      <stop offset="0%" stop-color="#ffffff" stop-opacity="0.4"/>
      <stop offset="70%" stop-color="#ffffff" stop-opacity="0.06"/>
      <stop offset="100%" stop-color="#000000" stop-opacity="0.22"/>
    </radialGradient>
    
    <linearGradient id="cloth_old_cloth_scrap" x1="0" y1="0" x2="1" y2="1">
      <stop offset="0%" stop-color="#cdb18f"/>
      <stop offset="55%" stop-color="#9e8266"/>
      <stop offset="100%" stop-color="#6f5a47"/>
    </linearGradient>
    <radialGradient id="clothShine_old_cloth_scrap" cx="0.3" cy="0.2" r="0.9">
      <stop offset="0%" stop-color="#ffffff" stop-opacity="0.38"/>
      <stop offset="100%" stop-color="#ffffff" stop-opacity="0"/>
    </radialGradient>
  </defs>
  <ellipse cx="256" cy="458" rx="146" ry="28" fill="#000000" opacity="0.28"/>
  
  <g filter="url(#drop_old_cloth_scrap)">
    <path d="M447.9 218.7 L403.2 282.6 L378.3 348.3 L282.0 390.4 L223.2 400.3 L147.6 333.0 L42.4 269.7 L106.3 183.5 L205.4 130.1 L259.5 117.7 L334.5 114.3 Z" fill="url(#cloth_old_cloth_scrap)" stroke="#1a1410" stroke-opacity="0.55" stroke-width="8"/>
    <path d="M420.8 225.8 L383.0 279.2 L366.1 332.4 L279.5 377.5 L231.5 384.7 L155.0 317.6 L70.3 262.1 L123.8 186.0 L211.9 150.0 L263.9 140.3 L330.0 125.8 Z" fill="url(#clothShine_old_cloth_scrap)"/>
    <path d="M129.7 221.4 Q256 236.8 386.0 232.6" stroke="#1d1410" stroke-opacity="0.24" stroke-width="7" fill="none"/><path d="M105.6 329.1 Q256 318.6 380.4 327.3" stroke="#1d1410" stroke-opacity="0.24" stroke-width="7" fill="none"/><path d="M129.6 226.9 Q256 219.6 395.8 231.2" stroke="#1d1410" stroke-opacity="0.24" stroke-width="7" fill="none"/><path d="M105.5 299.2 Q256 307.1 399.4 301.9" stroke="#1d1410" stroke-opacity="0.24" stroke-width="7" fill="none"/><path d="M122.7 256.1 Q256 273.7 415.3 247.8" stroke="#1d1410" stroke-opacity="0.24" stroke-width="7" fill="none"/><path d="M103.0 182.1 Q256 171.4 412.7 194.9" stroke="#1d1410" stroke-opacity="0.24" stroke-width="7" fill="none"/><path d="M115.5 265.1 Q256 280.5 402.6 256.1" stroke="#1d1410" stroke-opacity="0.24" stroke-width="7" fill="none"/>
    <circle cx="447.9" cy="218.7" r="3.2" fill="#efe6d7" opacity="0.85"/><circle cx="403.2" cy="282.6" r="3.2" fill="#efe6d7" opacity="0.85"/><circle cx="378.3" cy="348.3" r="3.2" fill="#efe6d7" opacity="0.85"/><circle cx="282.0" cy="390.4" r="3.2" fill="#efe6d7" opacity="0.85"/><circle cx="223.2" cy="400.3" r="3.2" fill="#efe6d7" opacity="0.85"/><circle cx="147.6" cy="333.0" r="3.2" fill="#efe6d7" opacity="0.85"/><circle cx="42.4" cy="269.7" r="3.2" fill="#efe6d7" opacity="0.85"/><circle cx="106.3" cy="183.5" r="3.2" fill="#efe6d7" opacity="0.85"/><circle cx="205.4" cy="130.1" r="3.2" fill="#efe6d7" opacity="0.85"/><circle cx="259.5" cy="117.7" r="3.2" fill="#efe6d7" opacity="0.85"/><circle cx="334.5" cy="114.3" r="3.2" fill="#efe6d7" opacity="0.85"/>
  </g>
  <rect x="24" y="24" width="464" height="464" filter="url(#grain_old_cloth_scrap)"/>
</svg>