<?xml version="1.0" encoding="UTF-8"?>
<svg width="512" height="512" viewBox="0 0 512 512" xmlns="http://www.w3.org/2000/svg" role="img" aria-label="old_cloth_piece material icon">
  <defs>
    
    <filter id="drop_old_cloth_piece" x="-30%" y="-30%" width="160%" height="170%">
      <feDropShadow dx="0" dy="20" stdDeviation="14" flood-color="#000000" flood-opacity="0.42"/>
    </filter>
    <filter id="grain_old_cloth_piece" x="-20%" y="-20%" width="140%" height="140%">
      <feTurbulence type="fractalNoise" baseFrequency="0.8" numOctaves="3" seed="123" result="noise"/>
      <feColorMatrix type="saturate" values="0"/>
      <feComponentTransfer>
        <feFuncA type="table" tableValues="0 0.11"/>
      </feComponentTransfer>
    </filter>
    <filter id="surface_old_cloth_piece" x="-20%" y="-20%" width="140%" height="140%">
      <feTurbulence type="fractalNoise" baseFrequency="0.028" numOctaves="2" seed="140" result="surfaceNoise"/>
      <feDisplacementMap in="SourceGraphic" in2="surfaceNoise" scale="8" xChannelSelector="R" yChannelSelector="G"/>
    </filter>
    <radialGradient id="rim_old_cloth_piece" cx="0.35" cy="0.2" r="0.9">
      <stop offset="0%" stop-color="#ffffff" stop-opacity="0.4"/>
      <stop offset="70%" stop-color="#ffffff" stop-opacity="0.06"/>
      <stop offset="100%" stop-color="#000000" stop-opacity="0.22"/>
    </radialGradient>
    
    <linearGradient id="cloth_old_cloth_piece" x1="0" y1="0" x2="1" y2="1">
      <stop offset="0%" stop-color="#c8a98b"/>
      <stop offset="55%" stop-color="#97785f"/>
      <stop offset="100%" stop-color="#664f3f"/>
    </linearGradient>
    <radialGradient id="clothShine_old_cloth_piece" cx="0.3" cy="0.2" r="0.9">
      <stop offset="0%" stop-color="#ffffff" stop-opacity="0.38"/>
      <stop offset="100%" stop-color="#ffffff" stop-opacity="0"/>
    </radialGradient>
  </defs>
  <ellipse cx="256" cy="458" rx="146" ry="28" fill="#000000" opacity="0.28"/>
  
  <g filter="url(#drop_old_cloth_piece)">
    <path d="M424.2 283.5 L375.4 365.7 L274.8 465.8 L159.8 434.0 L112.7 372.3 L116.4 247.8 L88.7 199.3 L169.0 113.6 L272.4 120.5 L370.9 114.2 L369.6 206.8 Z" fill="url(#cloth_old_cloth_piece)" stroke="#1a1410" stroke-opacity="0.55" stroke-width="8"/>
    <path d="M396.9 280.3 L364.4 348.1 L273.3 444.5 L175.2 417.2 L125.4 358.6 L133.3 253.3 L110.0 207.2 L176.1 138.1 L271.5 134.3 L352.6 130.3 L354.3 218.0 Z" fill="url(#clothShine_old_cloth_piece)"/>
    <path d="M115.8 344.6 Q256 325.8 379.8 340.1" stroke="#1d1410" stroke-opacity="0.24" stroke-width="7" fill="none"/><path d="M96.8 275.4 Q256 274.2 391.9 283.8" stroke="#1d1410" stroke-opacity="0.24" stroke-width="7" fill="none"/><path d="M131.7 216.3 Q256 219.0 371.1 226.1" stroke="#1d1410" stroke-opacity="0.24" stroke-width="7" fill="none"/><path d="M117.2 215.6 Q256 201.2 384.3 205.8" stroke="#1d1410" stroke-opacity="0.24" stroke-width="7" fill="none"/><path d="M125.5 345.3 Q256 338.0 405.7 338.4" stroke="#1d1410" stroke-opacity="0.24" stroke-width="7" fill="none"/><path d="M131.7 201.0 Q256 182.2 372.5 197.9" stroke="#1d1410" stroke-opacity="0.24" stroke-width="7" fill="none"/><path d="M117.9 350.6 Q256 352.2 413.1 350.7" stroke="#1d1410" stroke-opacity="0.24" stroke-width="7" fill="none"/>
    <circle cx="424.2" cy="283.5" r="3.2" fill="#efe6d7" opacity="0.85"/><circle cx="375.4" cy="365.7" r="3.2" fill="#efe6d7" opacity="0.85"/><circle cx="274.8" cy="465.8" r="3.2" fill="#efe6d7" opacity="0.85"/><circle cx="159.8" cy="434.0" r="3.2" fill="#efe6d7" opacity="0.85"/><circle cx="112.7" cy="372.3" r="3.2" fill="#efe6d7" opacity="0.85"/><circle cx="116.4" cy="247.8" r="3.2" fill="#efe6d7" opacity="0.85"/><circle cx="88.7" cy="199.3" r="3.2" fill="#efe6d7" opacity="0.85"/><circle cx="169.0" cy="113.6" r="3.2" fill="#efe6d7" opacity="0.85"/><circle cx="272.4" cy="120.5" r="3.2" fill="#efe6d7" opacity="0.85"/><circle cx="370.9" cy="114.2" r="3.2" fill="#efe6d7" opacity="0.85"/><circle cx="369.6" cy="206.8" r="3.2" fill="#efe6d7" opacity="0.85"/>
  </g>
  <rect x="24" y="24" width="464" height="464" filter="url(#grain_old_cloth_piece)"/>
</svg>