<?xml version="1.0" encoding="UTF-8"?>
<svg width="512" height="512" viewBox="0 0 512 512" xmlns="http://www.w3.org/2000/svg" role="img" aria-label="old_weed material icon">
  <defs>
    
    <filter id="drop_old_weed" x="-30%" y="-30%" width="160%" height="170%">
      <feDropShadow dx="0" dy="20" stdDeviation="14" flood-color="#000000" flood-opacity="0.42"/>
    </filter>
    <filter id="grain_old_weed" x="-20%" y="-20%" width="140%" height="140%">
      <feTurbulence type="fractalNoise" baseFrequency="0.8" numOctaves="3" seed="109" result="noise"/>
      <feColorMatrix type="saturate" values="0"/>
      <feComponentTransfer>
        <feFuncA type="table" tableValues="0 0.11"/>
      </feComponentTransfer>
    </filter>
    <filter id="surface_old_weed" x="-20%" y="-20%" width="140%" height="140%">
      <feTurbulence type="fractalNoise" baseFrequency="0.028" numOctaves="2" seed="126" result="surfaceNoise"/>
      <feDisplacementMap in="SourceGraphic" in2="surfaceNoise" scale="8" xChannelSelector="R" yChannelSelector="G"/>
    </filter>
    <radialGradient id="rim_old_weed" cx="0.35" cy="0.2" r="0.9">
      <stop offset="0%" stop-color="#ffffff" stop-opacity="0.4"/>
      <stop offset="70%" stop-color="#ffffff" stop-opacity="0.06"/>
      <stop offset="100%" stop-color="#000000" stop-opacity="0.22"/>
    </radialGradient>
    
    <linearGradient id="leafA_old_weed" x1="0" y1="0" x2="1" y2="1">
      <stop offset="0%" stop-color="#a1a86e"/>
      <stop offset="100%" stop-color="#6a7347"/>
    </linearGradient>
    <linearGradient id="leafB_old_weed" x1="1" y1="0" x2="0" y2="1">
      <stop offset="0%" stop-color="#a1a86e"/>
      <stop offset="100%" stop-color="#4f5b39"/>
    </linearGradient>
    <linearGradient id="leafC_old_weed" x1="0" y1="0" x2="0" y2="1">
      <stop offset="0%" stop-color="#6a7347"/>
      <stop offset="100%" stop-color="#4f5b39"/>
    </linearGradient>
    <linearGradient id="stem_old_weed" x1="0" y1="0" x2="0" y2="1">
      <stop offset="0%" stop-color="#7f5b3d"/>
      <stop offset="100%" stop-color="#3e2717"/>
    </linearGradient>
  </defs>
  <ellipse cx="256" cy="458" rx="146" ry="28" fill="#000000" opacity="0.28"/>
  
  <g filter="url(#drop_old_weed)">
    <path d="M256 456C258 412 262 362 270 318" stroke="url(#stem_old_weed)" stroke-width="16" stroke-linecap="round"/>
    <ellipse cx="206.0" cy="244.0" rx="62.0" ry="144.0" transform="rotate(-22.8 206.0 244.0)" fill="url(#leafA_old_weed)" stroke="#102915" stroke-opacity="0.55" stroke-width="6"/><path d="M206.0 126.0 Q194.9 244.0 201.8 364.0" stroke="#d8ffd9" stroke-opacity="0.34" stroke-width="5" fill="none"/><path d="M206.0 249.6 Q230.2 240.1 254.3 230.7" stroke="#d9ffd6" stroke-opacity="0.22" stroke-width="4" fill="none"/><path d="M206.0 233.1 Q233.6 231.0 261.2 228.9" stroke="#d9ffd6" stroke-opacity="0.22" stroke-width="4" fill="none"/><path d="M206.0 179.2 Q225.7 177.5 245.5 175.8" stroke="#d9ffd6" stroke-opacity="0.22" stroke-width="4" fill="none"/><path d="M206.0 209.6 Q229.8 220.5 253.5 231.3" stroke="#d9ffd6" stroke-opacity="0.22" stroke-width="4" fill="none"/><ellipse cx="298.0" cy="238.0" rx="66.0" ry="148.0" transform="rotate(29.4 298.0 238.0)" fill="url(#leafB_old_weed)" stroke="#102915" stroke-opacity="0.55" stroke-width="6"/><path d="M298.0 116.0 Q289.1 238.0 291.4 362.0" stroke="#d8ffd9" stroke-opacity="0.34" stroke-width="5" fill="none"/><path d="M298.0 278.3 Q269.1 281.2 240.1 284.1" stroke="#d9ffd6" stroke-opacity="0.22" stroke-width="4" fill="none"/><path d="M298.0 286.6 Q270.8 284.9 243.6 283.2" stroke="#d9ffd6" stroke-opacity="0.22" stroke-width="4" fill="none"/><path d="M298.0 192.6 Q269.1 198.8 240.2 204.9" stroke="#d9ffd6" stroke-opacity="0.22" stroke-width="4" fill="none"/><path d="M298.0 287.1 Q272.5 294.1 247.0 301.1" stroke="#d9ffd6" stroke-opacity="0.22" stroke-width="4" fill="none"/><ellipse cx="256.0" cy="286.0" rx="74.0" ry="134.0" transform="rotate(1.7 256.0 286.0)" fill="url(#leafC_old_weed)" stroke="#102915" stroke-opacity="0.55" stroke-width="6"/><path d="M256.0 178.0 Q270.0 286.0 245.8 396.0" stroke="#d8ffd9" stroke-opacity="0.34" stroke-width="5" fill="none"/><path d="M256.0 325.8 Q277.8 317.3 299.6 308.8" stroke="#d9ffd6" stroke-opacity="0.22" stroke-width="4" fill="none"/><path d="M256.0 239.6 Q276.1 235.1 296.2 230.6" stroke="#d9ffd6" stroke-opacity="0.22" stroke-width="4" fill="none"/><path d="M256.0 213.7 Q277.3 209.7 298.7 205.8" stroke="#d9ffd6" stroke-opacity="0.22" stroke-width="4" fill="none"/><path d="M256.0 251.5 Q274.4 256.3 292.9 261.0" stroke="#d9ffd6" stroke-opacity="0.22" stroke-width="4" fill="none"/>
    <path d="M188 410C234 400 278 398 326 408" stroke="#0f2812" stroke-opacity="0.32" stroke-width="8" stroke-linecap="round"/>
  </g>
  <rect x="24" y="24" width="464" height="464" filter="url(#grain_old_weed)"/>
</svg>