<?xml version="1.0" encoding="UTF-8"?>
<svg width="512" height="512" viewBox="0 0 512 512" xmlns="http://www.w3.org/2000/svg" role="img" aria-label="purple_crystal material icon">
  <defs>
    
    <filter id="drop_purple_crystal" x="-30%" y="-30%" width="160%" height="170%">
      <feDropShadow dx="0" dy="20" stdDeviation="14" flood-color="#000000" flood-opacity="0.42"/>
    </filter>
    <filter id="grain_purple_crystal" x="-20%" y="-20%" width="140%" height="140%">
      <feTurbulence type="fractalNoise" baseFrequency="0.8" numOctaves="3" seed="247" result="noise"/>
      <feColorMatrix type="saturate" values="0"/>
      <feComponentTransfer>
        <feFuncA type="table" tableValues="0 0.11"/>
      </feComponentTransfer>
    </filter>
    <filter id="surface_purple_crystal" x="-20%" y="-20%" width="140%" height="140%">
      <feTurbulence type="fractalNoise" baseFrequency="0.028" numOctaves="2" seed="264" result="surfaceNoise"/>
      <feDisplacementMap in="SourceGraphic" in2="surfaceNoise" scale="8" xChannelSelector="R" yChannelSelector="G"/>
    </filter>
    <radialGradient id="rim_purple_crystal" cx="0.35" cy="0.2" r="0.9">
      <stop offset="0%" stop-color="#ffffff" stop-opacity="0.4"/>
      <stop offset="70%" stop-color="#ffffff" stop-opacity="0.06"/>
      <stop offset="100%" stop-color="#000000" stop-opacity="0.22"/>
    </radialGradient>
    
    <linearGradient id="base_purple_crystal" x1="0" y1="0" x2="1" y2="1">
      <stop offset="0%" stop-color="#e5bbff"/>
      <stop offset="45%" stop-color="#9b66da"/>
      <stop offset="100%" stop-color="#58379a"/>
    </linearGradient>
    <radialGradient id="glow_purple_crystal" cx="0.4" cy="0.28" r="0.8">
      <stop offset="0%" stop-color="#f3ddff" stop-opacity="0.42"/>
      <stop offset="100%" stop-color="#ffffff" stop-opacity="0"/>
    </radialGradient>
  </defs>
  <ellipse cx="256" cy="458" rx="146" ry="28" fill="#000000" opacity="0.28"/>
  
  <g filter="url(#drop_purple_crystal)">
    <path d="M437.9 278.2 L366.8 395.8 L241.5 414.2 L133.6 351.4 L93.9 249.5 L156.6 127.9 L271.5 97.4 L399.1 134.8 Z" fill="url(#base_purple_crystal)" stroke="#0f1320" stroke-opacity="0.65" stroke-width="8"/>
    <path d="M437.9 278.2 L366.8 395.8 L241.5 414.2 L133.6 351.4 L93.9 249.5 L156.6 127.9 L271.5 97.4 L399.1 134.8 Z" fill="url(#glow_purple_crystal)"/>
    <path d="M275.7 269.5 L437.9 278.2 L393.6 330.1 Z" fill="#ffffff" opacity="0.191"/><path d="M275.7 269.5 L393.6 330.1 L366.8 395.8 Z" fill="#000000" opacity="0.099"/><path d="M275.7 269.5 L366.8 395.8 L294.9 405.6 Z" fill="#ffffff" opacity="0.305"/><path d="M275.7 269.5 L294.9 405.6 L241.5 414.2 Z" fill="#000000" opacity="0.187"/><path d="M275.7 269.5 L241.5 414.2 L182.9 382.3 Z" fill="#ffffff" opacity="0.212"/><path d="M275.7 269.5 L182.9 382.3 L133.6 351.4 Z" fill="#000000" opacity="0.152"/><path d="M275.7 269.5 L133.6 351.4 L105.7 302.1 Z" fill="#ffffff" opacity="0.265"/><path d="M275.7 269.5 L105.7 302.1 L93.9 249.5 Z" fill="#000000" opacity="0.161"/><path d="M275.7 269.5 L93.9 249.5 L129.2 196.0 Z" fill="#ffffff" opacity="0.204"/><path d="M275.7 269.5 L129.2 196.0 L156.6 127.9 Z" fill="#000000" opacity="0.149"/><path d="M275.7 269.5 L156.6 127.9 L208.7 110.6 Z" fill="#ffffff" opacity="0.243"/><path d="M275.7 269.5 L208.7 110.6 L271.5 97.4 Z" fill="#000000" opacity="0.186"/><path d="M275.7 269.5 L271.5 97.4 L331.4 113.6 Z" fill="#ffffff" opacity="0.261"/><path d="M275.7 269.5 L331.4 113.6 L399.1 134.8 Z" fill="#000000" opacity="0.149"/><path d="M275.7 269.5 L399.1 134.8 L414.3 203.8 Z" fill="#ffffff" opacity="0.185"/><path d="M275.7 269.5 L414.3 203.8 L437.9 278.2 Z" fill="#000000" opacity="0.182"/>
    <circle cx="340.4" cy="280.7" r="8.8" fill="#ffffff" opacity="0.421"/><circle cx="193.0" cy="161.4" r="8.2" fill="#ffffff" opacity="0.343"/><circle cx="190.5" cy="139.9" r="10.4" fill="#ffffff" opacity="0.285"/><circle cx="284.3" cy="311.0" r="4.5" fill="#ffffff" opacity="0.211"/><circle cx="223.3" cy="277.0" r="4.9" fill="#ffffff" opacity="0.239"/><circle cx="268.7" cy="260.0" r="9.7" fill="#ffffff" opacity="0.275"/><circle cx="219.9" cy="247.1" r="10.2" fill="#ffffff" opacity="0.282"/>
    <path d="M386.3 269.2 L339.7 363.4 L246.9 370.7 L165.4 330.7 L136.3 248.8 L184.7 162.1 L264.9 135.7 L357.0 167.9 Z" fill="url(#rim_purple_crystal)" opacity="0.38"/>
  </g>
  <rect x="24" y="24" width="464" height="464" filter="url(#grain_purple_crystal)"/>
</svg>