<?xml version="1.0" encoding="UTF-8"?>
<svg width="512" height="512" viewBox="0 0 512 512" xmlns="http://www.w3.org/2000/svg" role="img" aria-label="red_crystal material icon">
  <defs>
    
    <filter id="drop_red_crystal" x="-30%" y="-30%" width="160%" height="170%">
      <feDropShadow dx="0" dy="20" stdDeviation="14" flood-color="#000000" flood-opacity="0.42"/>
    </filter>
    <filter id="grain_red_crystal" x="-20%" y="-20%" width="140%" height="140%">
      <feTurbulence type="fractalNoise" baseFrequency="0.8" numOctaves="3" seed="241" result="noise"/>
      <feColorMatrix type="saturate" values="0"/>
      <feComponentTransfer>
        <feFuncA type="table" tableValues="0 0.11"/>
      </feComponentTransfer>
    </filter>
    <filter id="surface_red_crystal" x="-20%" y="-20%" width="140%" height="140%">
      <feTurbulence type="fractalNoise" baseFrequency="0.028" numOctaves="2" seed="258" result="surfaceNoise"/>
      <feDisplacementMap in="SourceGraphic" in2="surfaceNoise" scale="8" xChannelSelector="R" yChannelSelector="G"/>
    </filter>
    <radialGradient id="rim_red_crystal" cx="0.35" cy="0.2" r="0.9">
      <stop offset="0%" stop-color="#ffffff" stop-opacity="0.4"/>
      <stop offset="70%" stop-color="#ffffff" stop-opacity="0.06"/>
      <stop offset="100%" stop-color="#000000" stop-opacity="0.22"/>
    </radialGradient>
    
    <linearGradient id="base_red_crystal" x1="0" y1="0" x2="1" y2="1">
      <stop offset="0%" stop-color="#ff9c95"/>
      <stop offset="45%" stop-color="#dc5254"/>
      <stop offset="100%" stop-color="#7e2326"/>
    </linearGradient>
    <radialGradient id="glow_red_crystal" cx="0.4" cy="0.28" r="0.8">
      <stop offset="0%" stop-color="#ffe2df" stop-opacity="0.42"/>
      <stop offset="100%" stop-color="#ffffff" stop-opacity="0"/>
    </radialGradient>
  </defs>
  <ellipse cx="256" cy="458" rx="146" ry="28" fill="#000000" opacity="0.28"/>
  
  <g filter="url(#drop_red_crystal)">
    <path d="M418.8 286.8 L342.5 403.0 L204.4 410.4 L124.1 338.4 L111.9 207.5 L184.5 127.6 L299.5 118.9 L410.6 184.6 Z" fill="url(#base_red_crystal)" stroke="#0f1320" stroke-opacity="0.65" stroke-width="8"/>
    <path d="M418.8 286.8 L342.5 403.0 L204.4 410.4 L124.1 338.4 L111.9 207.5 L184.5 127.6 L299.5 118.9 L410.6 184.6 Z" fill="url(#glow_red_crystal)"/>
    <path d="M240.9 275.2 L418.8 286.8 L392.0 340.3 Z" fill="#ffffff" opacity="0.353"/><path d="M240.9 275.2 L392.0 340.3 L342.5 403.0 Z" fill="#000000" opacity="0.126"/><path d="M240.9 275.2 L342.5 403.0 L274.1 410.7 Z" fill="#ffffff" opacity="0.254"/><path d="M240.9 275.2 L274.1 410.7 L204.4 410.4 Z" fill="#000000" opacity="0.086"/><path d="M240.9 275.2 L204.4 410.4 L168.7 371.8 Z" fill="#ffffff" opacity="0.224"/><path d="M240.9 275.2 L168.7 371.8 L124.1 338.4 Z" fill="#000000" opacity="0.190"/><path d="M240.9 275.2 L124.1 338.4 L128.7 274.9 Z" fill="#ffffff" opacity="0.311"/><path d="M240.9 275.2 L128.7 274.9 L111.9 207.5 Z" fill="#000000" opacity="0.084"/><path d="M240.9 275.2 L111.9 207.5 L148.0 174.9 Z" fill="#ffffff" opacity="0.226"/><path d="M240.9 275.2 L148.0 174.9 L184.5 127.6 Z" fill="#000000" opacity="0.083"/><path d="M240.9 275.2 L184.5 127.6 L249.8 131.7 Z" fill="#ffffff" opacity="0.292"/><path d="M240.9 275.2 L249.8 131.7 L299.5 118.9 Z" fill="#000000" opacity="0.084"/><path d="M240.9 275.2 L299.5 118.9 L360.5 143.3 Z" fill="#ffffff" opacity="0.272"/><path d="M240.9 275.2 L360.5 143.3 L410.6 184.6 Z" fill="#000000" opacity="0.188"/><path d="M240.9 275.2 L410.6 184.6 L426.2 243.5 Z" fill="#ffffff" opacity="0.203"/><path d="M240.9 275.2 L426.2 243.5 L418.8 286.8 Z" fill="#000000" opacity="0.170"/>
    <circle cx="338.1" cy="238.3" r="8.0" fill="#ffffff" opacity="0.238"/><circle cx="295.4" cy="267.9" r="10.7" fill="#ffffff" opacity="0.301"/><circle cx="339.9" cy="170.8" r="10.5" fill="#ffffff" opacity="0.272"/><circle cx="222.8" cy="231.9" r="6.8" fill="#ffffff" opacity="0.362"/><circle cx="193.9" cy="153.6" r="10.2" fill="#ffffff" opacity="0.307"/><circle cx="195.7" cy="150.5" r="5.4" fill="#ffffff" opacity="0.243"/><circle cx="253.9" cy="154.3" r="10.0" fill="#ffffff" opacity="0.332"/>
    <path d="M380.8 272.8 L323.7 366.4 L218.7 369.4 L153.2 322.0 L151.3 214.5 L202.8 156.9 L291.3 151.6 L374.3 207.8 Z" fill="url(#rim_red_crystal)" opacity="0.38"/>
  </g>
  <rect x="24" y="24" width="464" height="464" filter="url(#grain_red_crystal)"/>
</svg>