<?xml version="1.0" encoding="UTF-8"?>
<svg width="512" height="512" viewBox="0 0 512 512" xmlns="http://www.w3.org/2000/svg" role="img" aria-label="ruby material icon">
  <defs>
    
    <filter id="drop_ruby" x="-30%" y="-30%" width="160%" height="170%">
      <feDropShadow dx="0" dy="20" stdDeviation="14" flood-color="#000000" flood-opacity="0.42"/>
    </filter>
    <filter id="grain_ruby" x="-20%" y="-20%" width="140%" height="140%">
      <feTurbulence type="fractalNoise" baseFrequency="0.8" numOctaves="3" seed="233" result="noise"/>
      <feColorMatrix type="saturate" values="0"/>
      <feComponentTransfer>
        <feFuncA type="table" tableValues="0 0.11"/>
      </feComponentTransfer>
    </filter>
    <filter id="surface_ruby" x="-20%" y="-20%" width="140%" height="140%">
      <feTurbulence type="fractalNoise" baseFrequency="0.028" numOctaves="2" seed="250" result="surfaceNoise"/>
      <feDisplacementMap in="SourceGraphic" in2="surfaceNoise" scale="8" xChannelSelector="R" yChannelSelector="G"/>
    </filter>
    <radialGradient id="rim_ruby" cx="0.35" cy="0.2" r="0.9">
      <stop offset="0%" stop-color="#ffffff" stop-opacity="0.4"/>
      <stop offset="70%" stop-color="#ffffff" stop-opacity="0.06"/>
      <stop offset="100%" stop-color="#000000" stop-opacity="0.22"/>
    </radialGradient>
    
    <linearGradient id="base_ruby" x1="0" y1="0" x2="1" y2="1">
      <stop offset="0%" stop-color="#ff8b94"/>
      <stop offset="45%" stop-color="#d13a4a"/>
      <stop offset="100%" stop-color="#6f1422"/>
    </linearGradient>
    <radialGradient id="glow_ruby" cx="0.4" cy="0.28" r="0.8">
      <stop offset="0%" stop-color="#ffd2d7" stop-opacity="0.42"/>
      <stop offset="100%" stop-color="#ffffff" stop-opacity="0"/>
    </radialGradient>
  </defs>
  <ellipse cx="256" cy="458" rx="146" ry="28" fill="#000000" opacity="0.28"/>
  
  <g filter="url(#drop_ruby)">
    <path d="M399.2 297.6 L333.4 384.0 L220.8 396.1 L114.0 337.2 L115.7 224.5 L166.5 121.5 L273.8 108.1 L410.1 173.3 Z" fill="url(#base_ruby)" stroke="#0f1320" stroke-opacity="0.65" stroke-width="8"/>
    <path d="M399.2 297.6 L333.4 384.0 L220.8 396.1 L114.0 337.2 L115.7 224.5 L166.5 121.5 L273.8 108.1 L410.1 173.3 Z" fill="url(#glow_ruby)"/>
    <path d="M261.8 267.0 L399.2 297.6 L357.0 344.7 Z" fill="#ffffff" opacity="0.295"/><path d="M261.8 267.0 L357.0 344.7 L333.4 384.0 Z" fill="#000000" opacity="0.123"/><path d="M261.8 267.0 L333.4 384.0 L281.8 382.4 Z" fill="#ffffff" opacity="0.372"/><path d="M261.8 267.0 L281.8 382.4 L220.8 396.1 Z" fill="#000000" opacity="0.099"/><path d="M261.8 267.0 L220.8 396.1 L169.2 368.6 Z" fill="#ffffff" opacity="0.308"/><path d="M261.8 267.0 L169.2 368.6 L114.0 337.2 Z" fill="#000000" opacity="0.185"/><path d="M261.8 267.0 L114.0 337.2 L110.9 275.3 Z" fill="#ffffff" opacity="0.329"/><path d="M261.8 267.0 L110.9 275.3 L115.7 224.5 Z" fill="#000000" opacity="0.195"/><path d="M261.8 267.0 L115.7 224.5 L147.5 162.0 Z" fill="#ffffff" opacity="0.177"/><path d="M261.8 267.0 L147.5 162.0 L166.5 121.5 Z" fill="#000000" opacity="0.195"/><path d="M261.8 267.0 L166.5 121.5 L223.4 114.9 Z" fill="#ffffff" opacity="0.333"/><path d="M261.8 267.0 L223.4 114.9 L273.8 108.1 Z" fill="#000000" opacity="0.113"/><path d="M261.8 267.0 L273.8 108.1 L352.2 141.1 Z" fill="#ffffff" opacity="0.208"/><path d="M261.8 267.0 L352.2 141.1 L410.1 173.3 Z" fill="#000000" opacity="0.192"/><path d="M261.8 267.0 L410.1 173.3 L397.5 236.6 Z" fill="#ffffff" opacity="0.319"/><path d="M261.8 267.0 L397.5 236.6 L399.2 297.6 Z" fill="#000000" opacity="0.152"/>
    <circle cx="256.6" cy="271.4" r="7.4" fill="#ffffff" opacity="0.235"/><circle cx="328.3" cy="287.3" r="8.6" fill="#ffffff" opacity="0.230"/><circle cx="178.3" cy="303.3" r="8.4" fill="#ffffff" opacity="0.222"/><circle cx="316.9" cy="190.0" r="4.1" fill="#ffffff" opacity="0.214"/><circle cx="261.4" cy="271.9" r="6.2" fill="#ffffff" opacity="0.397"/><circle cx="247.6" cy="226.9" r="10.7" fill="#ffffff" opacity="0.254"/><circle cx="192.9" cy="267.2" r="6.1" fill="#ffffff" opacity="0.345"/>
    <path d="M356.1 293.0 L308.2 351.5 L224.7 363.8 L154.3 316.3 L153.7 230.8 L186.7 158.9 L271.6 149.6 L376.6 201.3 Z" fill="url(#rim_ruby)" opacity="0.38"/>
  </g>
  <rect x="24" y="24" width="464" height="464" filter="url(#grain_ruby)"/>
</svg>