<?xml version="1.0" encoding="UTF-8"?>
<svg width="512" height="512" viewBox="0 0 512 512" xmlns="http://www.w3.org/2000/svg" role="img" aria-label="rusty_scrap material icon">
  <defs>
    
    <filter id="drop_rusty_scrap" x="-30%" y="-30%" width="160%" height="170%">
      <feDropShadow dx="0" dy="20" stdDeviation="14" flood-color="#000000" flood-opacity="0.42"/>
    </filter>
    <filter id="grain_rusty_scrap" x="-20%" y="-20%" width="140%" height="140%">
      <feTurbulence type="fractalNoise" baseFrequency="0.8" numOctaves="3" seed="143" result="noise"/>
      <feColorMatrix type="saturate" values="0"/>
      <feComponentTransfer>
        <feFuncA type="table" tableValues="0 0.11"/>
      </feComponentTransfer>
    </filter>
    <filter id="surface_rusty_scrap" x="-20%" y="-20%" width="140%" height="140%">
      <feTurbulence type="fractalNoise" baseFrequency="0.028" numOctaves="2" seed="160" result="surfaceNoise"/>
      <feDisplacementMap in="SourceGraphic" in2="surfaceNoise" scale="8" xChannelSelector="R" yChannelSelector="G"/>
    </filter>
    <radialGradient id="rim_rusty_scrap" cx="0.35" cy="0.2" r="0.9">
      <stop offset="0%" stop-color="#ffffff" stop-opacity="0.4"/>
      <stop offset="70%" stop-color="#ffffff" stop-opacity="0.06"/>
      <stop offset="100%" stop-color="#000000" stop-opacity="0.22"/>
    </radialGradient>
    
    <linearGradient id="base_rusty_scrap" x1="0" y1="0" x2="1" y2="1">
      <stop offset="0%" stop-color="#b07755"/>
      <stop offset="55%" stop-color="#7d5239"/>
      <stop offset="100%" stop-color="#4c2f26"/>
    </linearGradient>
    <linearGradient id="inner_rusty_scrap" x1="0" y1="0" x2="1" y2="1">
      <stop offset="0%" stop-color="#ffffff" stop-opacity="0.34"/>
      <stop offset="100%" stop-color="#ffffff" stop-opacity="0.05"/>
    </linearGradient>
  </defs>
  <ellipse cx="256" cy="458" rx="146" ry="28" fill="#000000" opacity="0.28"/>
  
  <g filter="url(#drop_rusty_scrap)">
    <path d="M412.1 265.6 L385.2 339.5 L327.7 405.4 L276.7 469.8 L174.7 418.1 L133.5 348.3 L124.1 268.3 L72.5 190.1 L172.9 166.4 L251.4 131.4 L323.8 125.6 L409.9 147.6 Z" fill="url(#base_rusty_scrap)" stroke="#121212" stroke-opacity="0.55" stroke-width="8"/>
    <path d="M373.5 254.7 L342.7 307.7 L310.4 358.6 L262.2 414.0 L196.4 370.3 L172.3 327.2 L169.1 267.9 L115.5 209.4 L194.1 185.7 L247.9 161.7 L301.2 156.1 L368.9 170.3 Z" fill="url(#inner_rusty_scrap)"/>
    <path d="M373.5 254.7 L342.7 307.7 L310.4 358.6 L262.2 414.0 L196.4 370.3 L172.3 327.2 L169.1 267.9 L115.5 209.4 L194.1 185.7 L247.9 161.7 L301.2 156.1 L368.9 170.3 Z" fill="url(#rim_rusty_scrap)" opacity="0.45"/>
    <path d="M259.4 244.5 L412.1 265.6 L385.2 339.5 Z" fill="#ffffff" opacity="0.129"/><path d="M249.6 270.8 L385.2 339.5 L327.7 405.4 Z" fill="#ffffff" opacity="0.195"/><path d="M263.6 251.1 L327.7 405.4 L276.7 469.8 Z" fill="#ffffff" opacity="0.134"/><path d="M272.7 270.9 L276.7 469.8 L174.7 418.1 Z" fill="#ffffff" opacity="0.094"/><path d="M272.3 237.4 L174.7 418.1 L133.5 348.3 Z" fill="#ffffff" opacity="0.076"/><path d="M246.3 241.2 L133.5 348.3 L124.1 268.3 Z" fill="#ffffff" opacity="0.186"/><path d="M239.4 240.8 L124.1 268.3 L72.5 190.1 Z" fill="#ffffff" opacity="0.092"/><path d="M263.6 242.2 L72.5 190.1 L172.9 166.4 Z" fill="#ffffff" opacity="0.177"/><path d="M240.4 258.4 L172.9 166.4 L251.4 131.4 Z" fill="#ffffff" opacity="0.147"/><path d="M254.9 242.1 L251.4 131.4 L323.8 125.6 Z" fill="#ffffff" opacity="0.111"/><path d="M250.6 262.3 L323.8 125.6 L409.9 147.6 Z" fill="#ffffff" opacity="0.103"/><path d="M252.2 251.0 L409.9 147.6 L412.1 265.6 Z" fill="#ffffff" opacity="0.112"/>
    <path d="M133.5 348.3 Q172.3 355.1 196.4 370.3" stroke="#0a0a0a" stroke-opacity="0.28" stroke-width="6" stroke-linecap="round" fill="none"/><path d="M327.7 405.4 Q245.7 358.3 172.3 327.2" stroke="#0a0a0a" stroke-opacity="0.28" stroke-width="6" stroke-linecap="round" fill="none"/><path d="M251.4 131.4 Q260.6 265.5 262.2 414.0" stroke="#0a0a0a" stroke-opacity="0.28" stroke-width="6" stroke-linecap="round" fill="none"/><path d="M409.9 147.6 Q331.7 161.8 247.9 161.7" stroke="#0a0a0a" stroke-opacity="0.28" stroke-width="6" stroke-linecap="round" fill="none"/><path d="M412.1 265.6 Q392.3 261.5 373.5 254.7" stroke="#0a0a0a" stroke-opacity="0.28" stroke-width="6" stroke-linecap="round" fill="none"/>
    <circle cx="292.5" cy="335.4" r="6.3" fill="#e3a577" opacity="0.331"/><circle cx="307.4" cy="341.4" r="7.7" fill="#e3a577" opacity="0.391"/><circle cx="277.6" cy="166.0" r="7.1" fill="#e3a577" opacity="0.209"/><circle cx="239.4" cy="170.5" r="7.5" fill="#e3a577" opacity="0.198"/><circle cx="151.0" cy="337.2" r="8.4" fill="#e3a577" opacity="0.410"/><circle cx="234.4" cy="214.2" r="8.1" fill="#e3a577" opacity="0.443"/><circle cx="217.4" cy="249.4" r="6.0" fill="#e3a577" opacity="0.204"/><circle cx="159.7" cy="281.6" r="4.8" fill="#e3a577" opacity="0.349"/><circle cx="290.9" cy="188.6" r="9.4" fill="#e3a577" opacity="0.423"/><circle cx="283.6" cy="185.5" r="6.0" fill="#e3a577" opacity="0.359"/><circle cx="287.3" cy="185.3" r="6.8" fill="#e3a577" opacity="0.301"/><circle cx="280.9" cy="332.7" r="7.8" fill="#e3a577" opacity="0.362"/><circle cx="189.3" cy="307.6" r="8.8" fill="#e3a577" opacity="0.219"/><circle cx="211.9" cy="291.1" r="6.0" fill="#e3a577" opacity="0.428"/><circle cx="313.3" cy="247.1" r="7.8" fill="#e3a577" opacity="0.277"/><circle cx="359.8" cy="306.0" r="9.0" fill="#e3a577" opacity="0.273"/><circle cx="337.0" cy="350.1" r="5.8" fill="#e3a577" opacity="0.211"/><circle cx="261.9" cy="155.5" r="7.6" fill="#e3a577" opacity="0.338"/>
  </g>
  <rect x="24" y="24" width="464" height="464" filter="url(#grain_rusty_scrap)"/>
</svg>