<?xml version="1.0" encoding="UTF-8"?>
<svg width="512" height="512" viewBox="0 0 512 512" xmlns="http://www.w3.org/2000/svg" role="img" aria-label="sapphire material icon">
  <defs>
    
    <filter id="drop_sapphire" x="-30%" y="-30%" width="160%" height="170%">
      <feDropShadow dx="0" dy="20" stdDeviation="14" flood-color="#000000" flood-opacity="0.42"/>
    </filter>
    <filter id="grain_sapphire" x="-20%" y="-20%" width="140%" height="140%">
      <feTurbulence type="fractalNoise" baseFrequency="0.8" numOctaves="3" seed="235" result="noise"/>
      <feColorMatrix type="saturate" values="0"/>
      <feComponentTransfer>
        <feFuncA type="table" tableValues="0 0.11"/>
      </feComponentTransfer>
    </filter>
    <filter id="surface_sapphire" x="-20%" y="-20%" width="140%" height="140%">
      <feTurbulence type="fractalNoise" baseFrequency="0.028" numOctaves="2" seed="252" result="surfaceNoise"/>
      <feDisplacementMap in="SourceGraphic" in2="surfaceNoise" scale="8" xChannelSelector="R" yChannelSelector="G"/>
    </filter>
    <radialGradient id="rim_sapphire" cx="0.35" cy="0.2" r="0.9">
      <stop offset="0%" stop-color="#ffffff" stop-opacity="0.4"/>
      <stop offset="70%" stop-color="#ffffff" stop-opacity="0.06"/>
      <stop offset="100%" stop-color="#000000" stop-opacity="0.22"/>
    </radialGradient>
    
    <linearGradient id="base_sapphire" x1="0" y1="0" x2="1" y2="1">
      <stop offset="0%" stop-color="#8fd1ff"/>
      <stop offset="45%" stop-color="#3f7be0"/>
      <stop offset="100%" stop-color="#1b2c75"/>
    </linearGradient>
    <radialGradient id="glow_sapphire" cx="0.4" cy="0.28" r="0.8">
      <stop offset="0%" stop-color="#dff1ff" stop-opacity="0.42"/>
      <stop offset="100%" stop-color="#ffffff" stop-opacity="0"/>
    </radialGradient>
  </defs>
  <ellipse cx="256" cy="458" rx="146" ry="28" fill="#000000" opacity="0.28"/>
  
  <g filter="url(#drop_sapphire)">
    <path d="M416.7 309.7 L337.5 411.9 L211.2 418.5 L97.8 342.5 L118.0 210.8 L195.0 118.6 L307.3 110.7 L416.5 190.4 Z" fill="url(#base_sapphire)" stroke="#0f1320" stroke-opacity="0.65" stroke-width="8"/>
    <path d="M416.7 309.7 L337.5 411.9 L211.2 418.5 L97.8 342.5 L118.0 210.8 L195.0 118.6 L307.3 110.7 L416.5 190.4 Z" fill="url(#glow_sapphire)"/>
    <path d="M244.3 258.2 L416.7 309.7 L382.2 351.5 Z" fill="#ffffff" opacity="0.224"/><path d="M244.3 258.2 L382.2 351.5 L337.5 411.9 Z" fill="#000000" opacity="0.082"/><path d="M244.3 258.2 L337.5 411.9 L271.2 415.5 Z" fill="#ffffff" opacity="0.354"/><path d="M244.3 258.2 L271.2 415.5 L211.2 418.5 Z" fill="#000000" opacity="0.183"/><path d="M244.3 258.2 L211.2 418.5 L163.2 390.8 Z" fill="#ffffff" opacity="0.323"/><path d="M244.3 258.2 L163.2 390.8 L97.8 342.5 Z" fill="#000000" opacity="0.126"/><path d="M244.3 258.2 L97.8 342.5 L99.9 281.8 Z" fill="#ffffff" opacity="0.316"/><path d="M244.3 258.2 L99.9 281.8 L118.0 210.8 Z" fill="#000000" opacity="0.136"/><path d="M244.3 258.2 L118.0 210.8 L149.7 164.7 Z" fill="#ffffff" opacity="0.373"/><path d="M244.3 258.2 L149.7 164.7 L195.0 118.6 Z" fill="#000000" opacity="0.107"/><path d="M244.3 258.2 L195.0 118.6 L250.3 121.7 Z" fill="#ffffff" opacity="0.180"/><path d="M244.3 258.2 L250.3 121.7 L307.3 110.7 Z" fill="#000000" opacity="0.147"/><path d="M244.3 258.2 L307.3 110.7 L357.1 149.6 Z" fill="#ffffff" opacity="0.219"/><path d="M244.3 258.2 L357.1 149.6 L416.5 190.4 Z" fill="#000000" opacity="0.192"/><path d="M244.3 258.2 L416.5 190.4 L417.9 258.5 Z" fill="#ffffff" opacity="0.265"/><path d="M244.3 258.2 L417.9 258.5 L416.7 309.7 Z" fill="#000000" opacity="0.087"/>
    <circle cx="272.6" cy="265.6" r="4.5" fill="#ffffff" opacity="0.339"/><circle cx="309.1" cy="253.9" r="9.6" fill="#ffffff" opacity="0.332"/><circle cx="335.1" cy="285.3" r="9.7" fill="#ffffff" opacity="0.216"/><circle cx="323.4" cy="235.2" r="8.6" fill="#ffffff" opacity="0.226"/><circle cx="255.4" cy="258.0" r="7.6" fill="#ffffff" opacity="0.285"/><circle cx="230.1" cy="222.3" r="7.1" fill="#ffffff" opacity="0.379"/><circle cx="321.2" cy="307.7" r="7.5" fill="#ffffff" opacity="0.363"/>
    <path d="M381.7 291.8 L310.4 367.3 L222.2 379.3 L144.8 322.4 L150.0 224.5 L206.1 158.3 L292.7 145.5 L377.9 208.5 Z" fill="url(#rim_sapphire)" opacity="0.38"/>
  </g>
  <rect x="24" y="24" width="464" height="464" filter="url(#grain_sapphire)"/>
</svg>