<?xml version="1.0" encoding="UTF-8"?>
<svg width="512" height="512" viewBox="0 0 512 512" xmlns="http://www.w3.org/2000/svg" role="img" aria-label="stone material icon">
  <defs>
    
    <filter id="drop_stone" x="-30%" y="-30%" width="160%" height="170%">
      <feDropShadow dx="0" dy="20" stdDeviation="14" flood-color="#000000" flood-opacity="0.42"/>
    </filter>
    <filter id="grain_stone" x="-20%" y="-20%" width="140%" height="140%">
      <feTurbulence type="fractalNoise" baseFrequency="0.8" numOctaves="3" seed="201" result="noise"/>
      <feColorMatrix type="saturate" values="0"/>
      <feComponentTransfer>
        <feFuncA type="table" tableValues="0 0.11"/>
      </feComponentTransfer>
    </filter>
    <filter id="surface_stone" x="-20%" y="-20%" width="140%" height="140%">
      <feTurbulence type="fractalNoise" baseFrequency="0.028" numOctaves="2" seed="218" result="surfaceNoise"/>
      <feDisplacementMap in="SourceGraphic" in2="surfaceNoise" scale="8" xChannelSelector="R" yChannelSelector="G"/>
    </filter>
    <radialGradient id="rim_stone" cx="0.35" cy="0.2" r="0.9">
      <stop offset="0%" stop-color="#ffffff" stop-opacity="0.4"/>
      <stop offset="70%" stop-color="#ffffff" stop-opacity="0.06"/>
      <stop offset="100%" stop-color="#000000" stop-opacity="0.22"/>
    </radialGradient>
    
    <linearGradient id="base_stone" x1="0" y1="0" x2="1" y2="1">
      <stop offset="0%" stop-color="#c2c2c2"/>
      <stop offset="55%" stop-color="#8f8f8f"/>
      <stop offset="100%" stop-color="#5c5c5c"/>
    </linearGradient>
    <linearGradient id="inner_stone" x1="0" y1="0" x2="1" y2="1">
      <stop offset="0%" stop-color="#ffffff" stop-opacity="0.34"/>
      <stop offset="100%" stop-color="#ffffff" stop-opacity="0.05"/>
    </linearGradient>
  </defs>
  <ellipse cx="256" cy="458" rx="146" ry="28" fill="#000000" opacity="0.28"/>
  
  <g filter="url(#drop_stone)">
    <path d="M383.8 267.6 L405.4 322.1 L355.1 398.7 L256.3 464.4 L161.2 439.5 L153.9 353.3 L129.6 286.7 L96.7 198.5 L146.3 123.9 L222.1 81.4 L308.2 108.1 L366.0 187.4 Z" fill="url(#base_stone)" stroke="#121212" stroke-opacity="0.55" stroke-width="8"/>
    <path d="M352.6 261.7 L372.1 301.7 L325.3 352.8 L250.9 411.0 L184.1 384.4 L179.6 329.0 L160.4 269.5 L133.7 216.4 L180.5 168.1 L235.2 136.3 L288.8 152.0 L334.0 208.9 Z" fill="url(#inner_stone)"/>
    <path d="M352.6 261.7 L372.1 301.7 L325.3 352.8 L250.9 411.0 L184.1 384.4 L179.6 329.0 L160.4 269.5 L133.7 216.4 L180.5 168.1 L235.2 136.3 L288.8 152.0 L334.0 208.9 Z" fill="url(#rim_stone)" opacity="0.45"/>
    <path d="M258.3 240.0 L383.8 267.6 L405.4 322.1 Z" fill="#ffffff" opacity="0.164"/><path d="M258.4 255.0 L405.4 322.1 L355.1 398.7 Z" fill="#ffffff" opacity="0.150"/><path d="M256.1 244.4 L355.1 398.7 L256.3 464.4 Z" fill="#ffffff" opacity="0.172"/><path d="M245.4 251.4 L256.3 464.4 L161.2 439.5 Z" fill="#ffffff" opacity="0.182"/><path d="M246.3 237.6 L161.2 439.5 L153.9 353.3 Z" fill="#ffffff" opacity="0.078"/><path d="M261.7 242.5 L153.9 353.3 L129.6 286.7 Z" fill="#ffffff" opacity="0.185"/><path d="M247.8 246.8 L129.6 286.7 L96.7 198.5 Z" fill="#ffffff" opacity="0.071"/><path d="M259.4 240.2 L96.7 198.5 L146.3 123.9 Z" fill="#ffffff" opacity="0.121"/><path d="M272.7 264.6 L146.3 123.9 L222.1 81.4 Z" fill="#ffffff" opacity="0.117"/><path d="M263.8 270.5 L222.1 81.4 L308.2 108.1 Z" fill="#ffffff" opacity="0.111"/><path d="M256.0 263.7 L308.2 108.1 L366.0 187.4 Z" fill="#ffffff" opacity="0.102"/><path d="M239.0 243.9 L366.0 187.4 L383.8 267.6 Z" fill="#ffffff" opacity="0.063"/>
    <path d="M129.6 286.7 Q232.0 290.0 352.6 261.7" stroke="#0a0a0a" stroke-opacity="0.28" stroke-width="6" stroke-linecap="round" fill="none"/><path d="M146.3 123.9 Q179.2 224.3 179.6 329.0" stroke="#0a0a0a" stroke-opacity="0.28" stroke-width="6" stroke-linecap="round" fill="none"/><path d="M153.9 353.3 Q189.3 245.4 235.2 136.3" stroke="#0a0a0a" stroke-opacity="0.28" stroke-width="6" stroke-linecap="round" fill="none"/><path d="M146.3 123.9 Q235.7 170.9 334.0 208.9" stroke="#0a0a0a" stroke-opacity="0.28" stroke-width="6" stroke-linecap="round" fill="none"/><path d="M308.2 108.1 Q288.4 254.4 250.9 411.0" stroke="#0a0a0a" stroke-opacity="0.28" stroke-width="6" stroke-linecap="round" fill="none"/>
    <circle cx="303.7" cy="302.5" r="4.8" fill="#f0f0f0" opacity="0.412"/><circle cx="155.8" cy="130.1" r="9.9" fill="#f0f0f0" opacity="0.335"/><circle cx="321.0" cy="220.6" r="8.0" fill="#f0f0f0" opacity="0.440"/><circle cx="373.9" cy="206.4" r="8.1" fill="#f0f0f0" opacity="0.427"/><circle cx="242.4" cy="335.8" r="5.7" fill="#f0f0f0" opacity="0.264"/><circle cx="184.7" cy="131.7" r="5.3" fill="#f0f0f0" opacity="0.247"/><circle cx="228.0" cy="248.2" r="6.8" fill="#f0f0f0" opacity="0.442"/><circle cx="172.7" cy="368.3" r="5.9" fill="#f0f0f0" opacity="0.428"/><circle cx="188.5" cy="356.9" r="7.8" fill="#f0f0f0" opacity="0.326"/><circle cx="181.1" cy="253.5" r="9.8" fill="#f0f0f0" opacity="0.174"/><circle cx="349.9" cy="162.3" r="6.8" fill="#f0f0f0" opacity="0.223"/><circle cx="373.3" cy="354.2" r="7.6" fill="#f0f0f0" opacity="0.412"/><circle cx="360.3" cy="295.9" r="6.2" fill="#f0f0f0" opacity="0.397"/><circle cx="221.8" cy="145.9" r="8.5" fill="#f0f0f0" opacity="0.276"/><circle cx="356.2" cy="130.0" r="9.1" fill="#f0f0f0" opacity="0.370"/><circle cx="305.2" cy="351.0" r="4.9" fill="#f0f0f0" opacity="0.382"/><circle cx="239.9" cy="182.5" r="9.3" fill="#f0f0f0" opacity="0.335"/><circle cx="290.7" cy="181.0" r="9.3" fill="#f0f0f0" opacity="0.427"/>
  </g>
  <rect x="24" y="24" width="464" height="464" filter="url(#grain_stone)"/>
</svg>