<?xml version="1.0" encoding="UTF-8"?>
<svg width="512" height="512" viewBox="0 0 512 512" xmlns="http://www.w3.org/2000/svg" role="img" aria-label="strange_bone material icon">
  <defs>
    
    <filter id="drop_strange_bone" x="-30%" y="-30%" width="160%" height="170%">
      <feDropShadow dx="0" dy="20" stdDeviation="14" flood-color="#000000" flood-opacity="0.42"/>
    </filter>
    <filter id="grain_strange_bone" x="-20%" y="-20%" width="140%" height="140%">
      <feTurbulence type="fractalNoise" baseFrequency="0.8" numOctaves="3" seed="171" result="noise"/>
      <feColorMatrix type="saturate" values="0"/>
      <feComponentTransfer>
        <feFuncA type="table" tableValues="0 0.11"/>
      </feComponentTransfer>
    </filter>
    <filter id="surface_strange_bone" x="-20%" y="-20%" width="140%" height="140%">
      <feTurbulence type="fractalNoise" baseFrequency="0.028" numOctaves="2" seed="188" result="surfaceNoise"/>
      <feDisplacementMap in="SourceGraphic" in2="surfaceNoise" scale="8" xChannelSelector="R" yChannelSelector="G"/>
    </filter>
    <radialGradient id="rim_strange_bone" cx="0.35" cy="0.2" r="0.9">
      <stop offset="0%" stop-color="#ffffff" stop-opacity="0.4"/>
      <stop offset="70%" stop-color="#ffffff" stop-opacity="0.06"/>
      <stop offset="100%" stop-color="#000000" stop-opacity="0.22"/>
    </radialGradient>
    
    <linearGradient id="bone_strange_bone" x1="0" y1="0" x2="1" y2="1">
      <stop offset="0%" stop-color="#f0e7db"/>
      <stop offset="52%" stop-color="#d6c9b7"/>
      <stop offset="100%" stop-color="#b6a896"/>
    </linearGradient>
  </defs>
  <ellipse cx="256" cy="458" rx="146" ry="28" fill="#000000" opacity="0.28"/>
  
  <g filter="url(#drop_strange_bone)" transform="rotate(-18 256 256)">
    <path d="M106 196C106 154 140 124 180 124C212 124 240 144 248 172H340C348 144 376 124 408 124C448 124 480 156 480 196C480 228 460 256 432 268C460 280 480 308 480 340C480 386 444 424 398 424C366 424 338 404 330 376H234C226 404 198 424 166 424C120 424 84 386 84 340C84 308 104 280 132 268C114 256 106 228 106 196Z" fill="url(#bone_strange_bone)" stroke="#2f2720" stroke-opacity="0.58" stroke-width="8"/>
    <path d="M210 244H364M210 300H364" stroke="#7f7469" stroke-opacity="0.4" stroke-width="8"/>
  </g>
  <rect x="24" y="24" width="464" height="464" filter="url(#grain_strange_bone)"/>
</svg>